<?xml version="1.0" encoding="UTF-8"?>
<svg width="220px" height="220px" viewBox="0 0 220 220" version="1.1" xmlns="http://www.w3.org/2000/svg" xmlns:xlink="http://www.w3.org/1999/xlink">
    <!-- Generator: Sketch 49 (51002) - http://www.bohemiancoding.com/sketch -->
    <title>clock</title>
    <desc>Created with Sketch.</desc>
    <defs></defs>
    <g id="Page-1" stroke="none" stroke-width="1" fill="none" fill-rule="evenodd">
        <g id="clock" fill="#0A80F0" fill-rule="nonzero">
            <path d="M110,0 C49.346,0 0,49.346 0,110 C0,170.654 49.346,220 110,220 C170.654,220 220,170.654 220,110 C220,49.346 170.654,0 110,0 Z M110,212.666667 C53.3903333,212.666667 7.33333333,166.609667 7.33333333,110 C7.33333333,53.3903333 53.3903333,7.33333333 110,7.33333333 C166.609667,7.33333333 212.666667,53.3903333 212.666667,110 C212.666667,166.609667 166.609667,212.666667 110,212.666667 Z" id="Shape"></path>
            <path d="M113.9375,96.0494737 L113.9375,58.6842105 C113.9375,56.6468421 112.2855,55 110.25,55 C108.2145,55 106.5625,56.6468421 106.5625,58.6842105 L106.5625,96.0494737 C101.403687,97.3905263 97.365875,101.424737 96.023625,106.578947 L69.6875,106.578947 C67.652,106.578947 66,108.225789 66,110.263158 C66,112.300526 67.652,113.947368 69.6875,113.947368 L96.023625,113.947368 C97.6719375,120.284211 103.398625,125 110.25,125 C118.384625,125 125,118.390526 125,110.263158 C125,103.414211 120.28,97.6963158 113.9375,96.0494737 Z M110.25,117.631579 C106.182687,117.631579 102.875,114.326842 102.875,110.263158 C102.875,106.199474 106.182687,102.894737 110.25,102.894737 C114.317312,102.894737 117.625,106.199474 117.625,110.263158 C117.625,114.326842 114.317312,117.631579 110.25,117.631579 Z" id="Shape"></path>
            <path d="M109.5,36 C111.432,36 113,34.361 113,32.3333333 L113,28.6666667 C113,26.639 111.432,25 109.5,25 C107.568,25 106,26.639 106,28.6666667 L106,32.3333333 C106,34.361 107.568,36 109.5,36 Z" id="Shape"></path>
            <path d="M109.5,183 C107.568,183 106,184.639 106,186.666667 L106,190.333333 C106,192.361 107.568,194 109.5,194 C111.432,194 113,192.361 113,190.333333 L113,186.666667 C113,184.639 111.432,183 109.5,183 Z" id="Shape"></path>
            <path d="M190.333333,106 L186.666667,106 C184.642667,106 183,107.5645 183,109.5 C183,111.4355 184.642667,113 186.666667,113 L190.333333,113 C192.357333,113 194,111.4355 194,109.5 C194,107.5645 192.357333,106 190.333333,106 Z" id="Shape"></path>
            <path d="M33.3333333,106 L29.6666667,106 C27.6426667,106 26,107.5645 26,109.5 C26,111.4355 27.6426667,113 29.6666667,113 L33.3333333,113 C35.3573333,113 37,111.4355 37,109.5 C37,107.5645 35.3573333,106 33.3333333,106 Z" id="Shape"></path>
            <path d="M164.694367,50.0819676 L162.083102,52.6938354 C160.638966,54.1383055 160.638966,56.473101 162.083102,57.917571 C162.803324,58.6379589 163.748846,59 164.694367,59 C165.639889,59 166.585411,58.6379589 167.305633,57.917571 L169.916898,55.3057032 C171.361034,53.8612332 171.361034,51.5264376 169.916898,50.0819676 C168.472761,48.6374976 166.138504,48.6411919 164.694367,50.0819676 Z" id="Shape"></path>
            <path d="M52.6943675,161.081968 L50.0831025,163.693835 C48.6389658,165.138305 48.6389658,167.473101 50.0831025,168.917571 C50.8033241,169.637959 51.7488458,170 52.6943675,170 C53.6398892,170 54.5854109,169.637959 55.3056325,168.917571 L57.9168975,166.305703 C59.3610342,164.861233 59.3610342,162.526438 57.9168975,161.081968 C56.4727608,159.637498 54.1348107,159.641192 52.6943675,161.081968 Z" id="Shape"></path>
            <path d="M167.305633,161.083203 C165.861496,159.638932 163.527239,159.638932 162.083102,161.083203 C160.638966,162.527473 160.638966,164.861945 162.083102,166.306215 L164.694367,168.917721 C165.414589,169.638009 166.360111,170 167.305633,170 C168.251154,170 169.196676,169.638009 169.916898,168.917721 C171.361034,167.473451 171.361034,165.138979 169.916898,163.694709 L167.305633,161.083203 Z" id="Shape"></path>
            <path d="M55.3056325,50.0832025 C53.8614958,48.6389325 51.5272392,48.6389325 50.0831025,50.0832025 C48.6389658,51.5274725 48.6389658,53.8619448 50.0831025,55.3062148 L52.6943675,57.9177209 C53.4145891,58.638009 54.3601108,59 55.3056325,59 C56.2511542,59 57.1966759,58.638009 57.9168975,57.9177209 C59.3610342,56.4734509 59.3610342,54.1389787 57.9168975,52.6947087 L55.3056325,50.0832025 Z" id="Shape"></path>
        </g>
    </g>
</svg>