<?xml version="1.0" encoding="UTF-8"?>
<svg width="512px" height="512px" viewBox="0 0 512 512" version="1.1" xmlns="http://www.w3.org/2000/svg" xmlns:xlink="http://www.w3.org/1999/xlink">
    <!-- Generator: Sketch 49 (51002) - http://www.bohemiancoding.com/sketch -->
    <title>vector</title>
    <desc>Created with Sketch.</desc>
    <defs></defs>
    <g id="Page-1" stroke="none" stroke-width="1" fill="none" fill-rule="evenodd">
        <g id="vector" fill="#0A80F0" fill-rule="nonzero">
            <path d="M432,100 C426.48,100 422,104.48 422,110 C422,115.52 426.48,120 432,120 C437.52,120 442,115.52 442,110 C442,104.48 437.52,100 432,100 Z" id="Shape"></path>
            <path d="M80,100 C74.48,100 70,104.48 70,110 C70,115.52 74.48,120 80,120 C85.52,120 90,115.52 90,110 C90,104.48 85.52,100 80,100 Z" id="Shape"></path>
            <path d="M502,220 L490.04,220 C486.302,191.196 477.27,163.747 463.096,138.295 C460.409,133.471 454.32,131.736 449.494,134.423 C444.669,137.11 442.935,143.2 445.622,148.025 C458.13,170.488 466.268,194.653 469.874,220 L462,220 C456.477,220 452,224.477 452,230 L452,270 C452,275.523 456.477,280 462,280 L502,280 C507.523,280 512,275.523 512,270 L512,230 C512,224.477 507.523,220 502,220 Z M492,260 L472,260 L472,240 L481.078,240 C481.081,240 481.085,240 481.088,240 C481.092,240 481.095,240 481.099,240 L492,240 L492,260 Z" id="Shape"></path>
            <path d="M365.981,292.621 C365.975,292.466 365.971,292.311 365.958,292.156 C365.94,291.944 365.911,291.735 365.88,291.527 C365.861,291.399 365.846,291.271 365.821,291.143 C365.775,290.898 365.715,290.658 365.652,290.419 C365.628,290.328 365.609,290.237 365.582,290.147 C365.493,289.848 365.389,289.555 365.273,289.268 C365.26,289.237 365.251,289.204 365.238,289.173 C365.1,288.839 364.945,288.514 364.773,288.2 L264.775,105.204 C263.022,101.996 259.657,100 256,100 C252.343,100 248.978,101.996 247.225,105.205 L147.227,288.201 C147.055,288.515 146.9,288.84 146.762,289.174 C146.749,289.205 146.74,289.237 146.727,289.269 C146.611,289.556 146.507,289.849 146.418,290.148 C146.391,290.238 146.372,290.329 146.348,290.42 C146.284,290.659 146.225,290.898 146.179,291.144 C146.155,291.271 146.14,291.399 146.12,291.528 C146.089,291.736 146.06,291.945 146.042,292.157 C146.029,292.312 146.024,292.467 146.019,292.622 C146.014,292.748 146,292.872 146,293 C146,293.066 146.009,293.129 146.01,293.195 C146.013,293.352 146.023,293.508 146.034,293.665 C146.047,293.864 146.063,294.062 146.088,294.258 C146.106,294.396 146.128,294.533 146.151,294.671 C146.187,294.887 146.23,295.101 146.28,295.312 C146.308,295.431 146.339,295.55 146.372,295.668 C146.435,295.896 146.507,296.12 146.585,296.341 C146.607,296.404 146.621,296.468 146.645,296.531 L182.709,392.1 C179.816,393.534 177.14,395.439 174.789,397.789 C169.121,403.457 166,410.99 166,419 C166,432.036 174.361,443.152 186,447.28 L186,502 C186,507.523 190.477,512 196,512 L316,512 C321.523,512 326,507.523 326,502 L326,447.297 C330.169,445.826 333.992,443.431 337.212,440.211 C342.879,434.543 346,427.01 346,419 C346,407.227 339.181,397.022 329.287,392.113 L365.356,296.531 C365.38,296.468 365.394,296.404 365.416,296.341 C365.494,296.12 365.566,295.896 365.629,295.668 C365.662,295.55 365.692,295.431 365.721,295.312 C365.771,295.101 365.813,294.887 365.85,294.671 C365.873,294.533 365.896,294.396 365.913,294.258 C365.938,294.062 365.954,293.864 365.967,293.665 C365.977,293.508 365.988,293.352 365.991,293.195 C365.992,293.13 366.001,293.066 366.001,293 C366,292.872 365.986,292.748 365.981,292.621 Z M256,283 C261.514,283 266,287.486 266,293 C266,298.514 261.514,303 256,303 C250.486,303 246,298.514 246,293 C246,287.486 250.486,283 256,283 Z M306,492 L206,492 L206,449 L306,449 L306,492 Z M323.069,426.068 C321.179,427.959 318.668,429 316,429 L196,429 C190.486,429 186,424.514 186,419 C186,416.332 187.041,413.821 188.931,411.932 C190.822,410.041 193.332,409 196,409 L315.933,409 C315.955,409 315.977,409.003 315.999,409.003 C316.01,409.003 316.022,409.002 316.033,409.002 C321.532,409.02 326.001,413.497 326.001,419 C326,421.668 324.959,424.179 323.069,426.068 Z M309.085,389 L202.915,389 L170.462,303 L196,303 C201.523,303 206,298.523 206,293 C206,287.477 201.523,283 196,283 L172.86,283 L246,149.154 L246,264.72 C234.361,268.848 226,279.963 226,293 C226,309.542 239.458,323 256,323 C272.542,323 286,309.542 286,293 C286,279.964 277.639,268.848 266,264.72 L266,149.154 L339.14,283 L316,283 C310.477,283 306,287.477 306,293 C306,298.523 310.477,303 316,303 L341.538,303 L309.085,389 Z" id="Shape"></path>
            <path d="M62.505,134.423 C57.679,131.735 51.589,133.469 48.903,138.295 C34.73,163.747 25.697,191.196 21.96,220 L10,220 C4.477,220 0,224.477 0,230 L0,270 C0,275.523 4.477,280 10,280 L50,280 C55.523,280 60,275.523 60,270 L60,230 C60,224.477 55.523,220 50,220 L42.125,220 C45.732,194.653 53.869,170.488 66.377,148.025 C69.064,143.2 67.331,137.11 62.505,134.423 Z M40,260 L20,260 L20,240 L30.901,240 C30.905,240 30.908,240 30.912,240 C30.915,240 30.919,240 30.922,240 L40,240 L40,260 Z" id="Shape"></path>
            <path d="M482,0 C468.964,0 457.848,8.361 453.72,20 L286,20 L286,10 C286,4.477 281.523,0 276,0 L236,0 C230.477,0 226,4.477 226,10 L226,20 L58.28,20 C54.152,8.361 43.036,0 30,0 C13.458,0 0,13.458 0,30 C0,46.542 13.458,60 30,60 C43.036,60 54.152,51.639 58.28,40 L158.814,40 C137.485,48.925 117.925,60.511 101.825,74.084 C97.602,77.644 97.065,83.953 100.625,88.175 C102.603,90.522 105.43,91.73 108.275,91.73 C110.551,91.73 112.839,90.958 114.715,89.376 C143.407,65.188 184.353,47.913 226,42.119 L226,50 C226,55.523 230.477,60 236,60 L276,60 C281.523,60 286,55.523 286,50 L286,42.119 C327.647,47.913 368.593,65.188 397.285,89.375 C399.161,90.957 401.449,91.73 403.725,91.729 C406.571,91.729 409.398,90.521 411.375,88.174 C414.936,83.953 414.398,77.644 410.175,74.084 C394.075,60.511 374.515,48.925 353.186,40 L453.72,40 C457.848,51.639 468.963,60 482,60 C498.542,60 512,46.542 512,30 C512,13.458 498.542,0 482,0 Z M30,40 C24.486,40 20,35.514 20,30 C20,24.486 24.486,20 30,20 C35.514,20 40,24.486 40,30 C40,35.514 35.514,40 30,40 Z M266,30 L266,30.9 L266,40 L246,40 L246,30.9 L246,30 L246,20 L266,20 L266,30 Z M482,40 C476.486,40 472,35.514 472,30 C472,24.486 476.486,20 482,20 C487.514,20 492,24.486 492,30 C492,35.514 487.514,40 482,40 Z" id="Shape"></path>
        </g>
    </g>
</svg>