<?xml version="1.0" encoding="UTF-8"?>
<svg width="215px" height="115px" viewBox="0 0 215 115" version="1.1" xmlns="http://www.w3.org/2000/svg" xmlns:xlink="http://www.w3.org/1999/xlink">
    <!-- Generator: Sketch 49.1 (51147) - http://www.bohemiancoding.com/sketch -->
    <title>Shape</title>
    <desc>Created with Sketch.</desc>
    <defs></defs>
    <g id="Page-1" stroke="none" stroke-width="1" fill="none" fill-rule="evenodd">
        <g id="double-checking" fill="#0A80F0" fill-rule="nonzero">
            <path d="M208.35,6.943 C199.647,-1.757 185.486,-1.759 176.783,6.943 L123.157,60.568 L119.743,57.154 L138.387,38.51 C138.57,38.327 138.742,38.136 138.902,37.94 C147.062,29.2 146.906,15.463 138.387,6.944 C134.171,2.727 128.567,0.406 122.604,0.406 C116.641,0.406 111.037,2.727 106.82,6.943 L53.195,60.568 L38.104,45.478 C29.401,36.777 15.241,36.777 6.538,45.478 C2.321,49.695 0,55.299 0,61.262 C0,67.106 2.241,72.596 6.299,76.782 C6.379,76.869 6.452,76.961 6.537,77.045 L37.372,107.88 C37.385,107.893 37.395,107.908 37.409,107.921 C41.626,112.137 47.23,114.458 53.193,114.458 C59.155,114.458 64.759,112.137 68.976,107.921 L68.978,107.919 L88.175,88.722 L107.334,107.881 C107.347,107.894 107.357,107.909 107.371,107.922 C111.588,112.138 117.192,114.459 123.154,114.459 C129.117,114.459 134.721,112.138 138.938,107.922 L208.35,38.51 C208.533,38.327 208.705,38.136 208.865,37.94 C217.025,29.2 216.869,15.463 208.35,6.943 Z M17.144,56.086 C19.998,53.233 24.643,53.232 27.498,56.086 L47.892,76.48 C48.075,76.663 48.266,76.834 48.462,76.995 C49.837,78.116 51.517,78.677 53.196,78.677 C54.875,78.677 56.555,78.116 57.93,76.995 C58.126,76.835 58.317,76.663 58.5,76.48 L117.429,17.551 C118.812,16.168 120.65,15.406 122.606,15.406 C124.561,15.406 126.399,16.167 127.782,17.551 C130.636,20.405 130.636,25.049 127.782,27.904 L58.374,97.313 C56.991,98.696 55.153,99.458 53.198,99.458 C51.242,99.458 49.404,98.696 48.021,97.313 L17.147,66.439 C17.145,66.437 17.143,66.436 17.142,66.434 C15.762,65.052 15.003,63.216 15.003,61.263 C15,59.306 15.762,57.468 17.144,56.086 Z M109.135,67.762 L117.852,76.479 C119.317,77.943 121.236,78.675 123.156,78.675 C125.075,78.675 126.995,77.943 128.46,76.479 L187.39,17.55 C190.244,14.694 194.889,14.696 197.743,17.55 C200.597,20.404 200.597,25.048 197.743,27.903 L128.334,97.312 C126.951,98.695 125.113,99.457 123.157,99.457 C121.202,99.457 119.364,98.695 117.981,97.312 L98.784,78.114 L109.135,67.762 Z" id="Shape"></path>
        </g>
    </g>
</svg>