<?xml version="1.0" encoding="UTF-8"?>
<svg width="146px" height="137px" viewBox="0 0 146 137" version="1.1" xmlns="http://www.w3.org/2000/svg" xmlns:xlink="http://www.w3.org/1999/xlink">
    <!-- Generator: Sketch 49.2 (51160) - http://www.bohemiancoding.com/sketch -->
    <title>workflow</title>
    <desc>Created with Sketch.</desc>
    <defs></defs>
    <g id="Page-1" stroke="none" stroke-width="1" fill="none" fill-rule="evenodd">
        <g id="workflow" fill="#0A80F0" fill-rule="nonzero">
            <path d="M143.861328,67.4718646 L128.011203,67.4718646 L119.553754,53.5444368 C119.166227,52.9063525 118.472727,52.5164437 117.724762,52.5164437 L75.1386719,52.5164437 L75.1386719,38.6954582 C84.8579375,37.6290434 92.445375,29.3874533 92.445375,19.4077807 C92.445375,8.70606541 83.7221602,0 73,0 C62.2778398,0 53.5549102,8.70635001 53.5549102,19.4077807 C53.5549102,24.2844865 55.374207,28.9463156 58.6777422,32.5348994 C59.47675,33.4029445 60.8295312,33.4601501 61.699543,32.6624024 C62.5692695,31.8649394 62.6265859,30.5144889 61.827293,29.6464438 C59.2511914,26.8476387 57.8322539,23.2115259 57.8322539,19.4074961 C57.8322539,11.0600329 64.6363672,4.26878964 73,4.26878964 C81.3636328,4.26878964 88.1680312,11.0600329 88.1680312,19.4074961 C88.1680312,27.7549593 81.3636328,34.5462026 73,34.5462026 C71.4675703,34.5462026 69.9568125,34.3196571 68.5102148,33.8725427 C67.3824219,33.5239016 66.1841953,34.1543016 65.8345937,35.2804834 C65.4852773,36.4066652 66.1168984,37.6020059 67.2452617,37.9509316 C68.4232422,38.3146567 69.6331602,38.5639707 70.8613281,38.6980196 L70.8613281,52.5161591 L28.2752383,52.5161591 C27.5272734,52.5161591 26.8337734,52.9060679 26.4462461,53.5441522 L17.9887969,67.47158 L2.13867188,67.47158 C0.957269531,67.47158 0,68.4269988 0,69.6061171 L0,134.865178 C0,136.044297 0.957269531,136.999715 2.13867188,136.999715 L36.248207,136.999715 C37.4296094,136.999715 38.3868789,136.044297 38.3868789,134.865178 L38.3868789,86.7145745 C38.3868789,85.5354562 37.4296094,84.5800374 36.248207,84.5800374 C35.0668047,84.5800374 34.1095352,85.5354562 34.1095352,86.7145745 L34.1095352,132.730926 L4.27734375,132.730926 L4.27734375,71.7409389 L34.1095352,71.7409389 L34.1095352,77.9897251 C34.1095352,79.1688434 35.0668047,80.1242623 36.248207,80.1242623 C37.4296094,80.1242623 38.3868789,79.1688434 38.3868789,77.9897251 L38.3868789,69.6064017 C38.3868789,68.4272834 37.4296094,67.4718646 36.248207,67.4718646 L22.9907227,67.4718646 L29.4800234,56.785518 L70.8613281,56.785518 L70.8613281,67.4718646 L55.9450898,67.4718646 C54.7636875,67.4718646 53.806418,68.4272834 53.806418,69.6064017 L53.806418,134.865463 C53.806418,136.044581 54.7636875,137 55.9450898,137 L90.054625,137 C91.2360273,137 92.1932969,136.044581 92.1932969,134.865463 L92.1932969,124.377201 C92.1932969,123.198083 91.2360273,122.242664 90.054625,122.242664 C88.8732227,122.242664 87.9159531,123.198083 87.9159531,124.377201 L87.9159531,132.730926 L58.0837617,132.730926 L58.0837617,71.7409389 L87.9159531,71.7409389 L87.9159531,115.758225 C87.9159531,116.937343 88.8732227,117.892762 90.054625,117.892762 C91.2360273,117.892762 92.1932969,116.937343 92.1932969,115.758225 L92.1932969,69.6064017 C92.1932969,68.4272834 91.2360273,67.4718646 90.054625,67.4718646 L75.1386719,67.4718646 L75.1386719,56.785518 L116.519977,56.785518 L123.009277,67.4718646 L109.751508,67.4718646 C108.570105,67.4718646 107.612836,68.4272834 107.612836,69.6064017 L107.612836,134.865463 C107.612836,136.044581 108.570105,137 109.751508,137 L143.861328,137 C145.04273,137 146,136.044581 146,134.865463 L146,69.6064017 C146,68.4272834 145.04273,67.4718646 143.861328,67.4718646 Z M141.722656,132.730926 L111.890465,132.730926 L111.890465,71.7409389 L126.804137,71.7409389 C126.805563,71.7409389 126.806988,71.7412235 126.808414,71.7412235 C126.80984,71.7412235 126.811266,71.7409389 126.812691,71.7409389 L141.722656,71.7409389 L141.722656,132.730926 Z" id="Shape"></path>
            <path d="M14.7396779,82 L10.2603221,82 C9.01172019,82 8,82.8952 8,84 C8,85.1048 9.01172019,86 10.2603221,86 L14.7396779,86 C15.9882798,86 17,85.1048 17,84 C17,82.8952 15.9882798,82 14.7396779,82 Z" id="Shape"></path>
            <path d="M27.8744139,92 L10.1253027,92 C8.95128549,92 8,92.8952 8,94 C8,95.1048 8.95128549,96 10.1253027,96 L27.8746973,96 C29.0487145,96 30,95.1048 30,94 C30,92.8952 29.0484311,92 27.8744139,92 Z" id="Shape"></path>
            <path d="M27.8744139,100 L10.1253027,100 C8.95128549,100 8,100.8952 8,102 C8,103.1048 8.95128549,104 10.1253027,104 L27.8746973,104 C29.0487145,104 30,103.1048 30,102 C30,100.8952 29.0484311,100 27.8744139,100 Z" id="Shape"></path>
            <path d="M27.8744139,108 L10.1253027,108 C8.95128549,108 8,108.8952 8,110 C8,111.1048 8.95128549,112 10.1253027,112 L27.8746973,112 C29.0487145,112 30,111.1048 30,110 C30,108.8952 29.0484311,108 27.8744139,108 Z" id="Shape"></path>
            <path d="M27.8744139,115 L10.1253027,115 C8.95128549,115 8,115.8952 8,117 C8,118.1048 8.95128549,119 10.1253027,119 L27.8746973,119 C29.0487145,119 30,118.1048 30,117 C30,115.8952 29.0484311,115 27.8744139,115 Z" id="Shape"></path>
            <path d="M68.7396022,82 L64.2603978,82 C63.0117541,82 62,82.8952 62,84 C62,85.1048 63.0117541,86 64.2603978,86 L68.7396022,86 C69.9882459,86 71,85.1048 71,84 C71,82.8952 69.9882459,82 68.7396022,82 Z" id="Shape"></path>
            <path d="M81.8746699,92 L64.1253301,92 C62.9512977,92 62,92.8952 62,94 C62,95.1048 62.9512977,96 64.1253301,96 L81.8746699,96 C83.0487023,96 84,95.1048 84,94 C84,92.8952 83.0487023,92 81.8746699,92 Z" id="Shape"></path>
            <path d="M81.8746699,100 L64.1253301,100 C62.9512977,100 62,100.8952 62,102 C62,103.1048 62.9512977,104 64.1253301,104 L81.8746699,104 C83.0487023,104 84,103.1048 84,102 C84,100.8952 83.0487023,100 81.8746699,100 Z" id="Shape"></path>
            <path d="M81.8746699,108 L64.1253301,108 C62.9512977,108 62,108.8952 62,110 C62,111.1048 62.9512977,112 64.1253301,112 L81.8746699,112 C83.0487023,112 84,111.1048 84,110 C84,108.8952 83.0487023,108 81.8746699,108 Z" id="Shape"></path>
            <path d="M81.8746699,115 L64.1253301,115 C62.9512977,115 62,115.8952 62,117 C62,118.1048 62.9512977,119 64.1253301,119 L81.8746699,119 C83.0487023,119 84,118.1048 84,117 C84,115.8952 83.0487023,115 81.8746699,115 Z" id="Shape"></path>
            <path d="M121.739678,82 L117.260322,82 C116.01172,82 115,82.8952 115,84 C115,85.1048 116.01172,86 117.260322,86 L121.739678,86 C122.98828,86 124,85.1048 124,84 C124,82.8952 122.98828,82 121.739678,82 Z" id="Shape"></path>
            <path d="M134.874697,92 L117.125303,92 C115.951285,92 115,92.8952 115,94 C115,95.1048 115.951285,96 117.125303,96 L134.874697,96 C136.048715,96 137,95.1048 137,94 C137,92.8952 136.048715,92 134.874697,92 Z" id="Shape"></path>
            <path d="M134.874697,100 L117.125303,100 C115.951285,100 115,100.8952 115,102 C115,103.1048 115.951285,104 117.125303,104 L134.874697,104 C136.048715,104 137,103.1048 137,102 C137,100.8952 136.048715,100 134.874697,100 Z" id="Shape"></path>
            <path d="M134.874697,108 L117.125303,108 C115.951285,108 115,108.8952 115,110 C115,111.1048 115.951285,112 117.125303,112 L134.874697,112 C136.048715,112 137,111.1048 137,110 C137,108.8952 136.048715,108 134.874697,108 Z" id="Shape"></path>
            <path d="M134.874697,115 L117.125303,115 C115.951285,115 115,115.8952 115,117 C115,118.1048 115.951285,119 117.125303,119 L134.874697,119 C136.048715,119 137,118.1048 137,117 C137,115.8952 136.048715,115 134.874697,115 Z" id="Shape"></path>
        </g>
    </g>
</svg>