<?xml version="1.0" encoding="UTF-8"?>
<svg width="512px" height="376px" viewBox="0 0 512 376" version="1.1" xmlns="http://www.w3.org/2000/svg" xmlns:xlink="http://www.w3.org/1999/xlink">
    <!-- Generator: Sketch 49 (51002) - http://www.bohemiancoding.com/sketch -->
    <title>interview</title>
    <desc>Created with Sketch.</desc>
    <defs></defs>
    <g id="Page-1" stroke="none" stroke-width="1" fill="none" fill-rule="evenodd">
        <g id="interview" fill="#0A80F0" fill-rule="nonzero">
            <path d="M403.645,57.044 C386.229,48.336 353.575,48.236 352.194,48.236 C348.052,48.236 344.694,51.594 344.694,55.736 C344.694,59.878 348.052,63.236 352.194,63.236 C360.62,63.236 385.083,64.534 396.937,70.46 C398.014,70.999 399.158,71.253 400.285,71.253 C403.036,71.253 405.685,69.733 406.999,67.106 C408.852,63.401 407.35,58.896 403.645,57.044 Z" id="Shape"></path>
            <path d="M504.5,280.704 L459.2,280.704 C462.179,275.89 463.903,270.221 463.903,264.156 L463.903,194.118 C463.903,180.107 454.493,167.633 441.021,163.784 L413.976,156.057 C410.332,155.016 407.788,151.642 407.789,147.852 L407.79,141.596 C410.309,139.851 412.711,137.898 414.957,135.718 C425.843,125.154 431.838,110.983 431.838,95.817 L431.838,81.555 L434.831,75.569 C438.118,68.997 439.854,61.638 439.854,54.29 L439.854,15.655 C439.854,11.513 436.496,8.155 432.354,8.155 L360.208,8.155 C333.972,8.155 312.627,29.5 312.627,55.736 L312.627,56.183 C312.627,62.292 314.071,68.411 316.804,73.877 L320.643,81.555 L320.643,93.8 C320.643,113.206 330.206,130.619 344.691,141.098 L344.691,147.853 C344.691,151.642 342.146,155.016 338.503,156.057 L311.46,163.784 C297.988,167.633 288.579,180.108 288.579,194.119 L288.579,200.543 L288.063,200.543 C279.507,200.543 272.547,207.503 272.547,216.059 L272.547,280.188 C272.547,280.362 272.567,280.531 272.573,280.704 L234.747,280.704 C237.726,275.89 239.45,270.221 239.45,264.156 L239.45,194.118 C239.45,180.107 230.04,167.633 216.568,163.784 L189.523,156.057 C189.23,155.974 188.953,155.859 188.674,155.746 C201.506,153.245 211.966,149.969 218.676,147.571 C222.579,146.176 225.704,143.341 227.473,139.585 C229.226,135.864 229.426,131.696 228.035,127.848 C221.424,109.568 216.438,78.972 215.381,63.912 C212.829,27.554 185.49,0.137 151.79,0.138 C118.088,0.138 90.748,27.555 88.196,63.912 C87.138,78.97 82.153,109.566 75.541,127.848 C74.15,131.695 74.35,135.863 76.103,139.584 C77.873,143.339 80.996,146.176 84.899,147.57 C91.609,149.968 102.071,153.244 114.905,155.746 C114.626,155.858 114.346,155.971 114.052,156.055 L87.009,163.782 C73.537,167.631 64.128,180.105 64.128,194.116 L64.128,264.154 C64.128,270.219 65.853,275.888 68.831,280.702 L7.5,280.702 C3.358,280.702 0,284.06 0,288.202 C0,292.344 3.358,295.702 7.5,295.702 L16.032,295.702 L16.032,368.363 C16.032,372.505 19.39,375.863 23.532,375.863 C27.674,375.863 31.032,372.505 31.032,368.363 L31.032,327.766 L96.193,327.766 L96.193,368.363 C96.193,372.505 99.551,375.863 103.693,375.863 C107.835,375.863 111.193,372.505 111.193,368.363 L111.193,343.799 L192.387,343.799 L192.387,368.363 C192.387,372.505 195.745,375.863 199.887,375.863 C204.029,375.863 207.387,372.505 207.387,368.363 L207.387,327.766 L480.968,327.766 L480.968,368.363 C480.968,372.505 484.326,375.863 488.468,375.863 C492.61,375.863 495.968,372.505 495.968,368.363 L495.968,295.702 L504.5,295.702 C508.642,295.702 512,292.344 512,288.202 C512,284.059 508.642,280.704 504.5,280.704 Z M335.645,93.8 L335.645,79.784 C335.645,78.619 335.374,77.471 334.853,76.43 L330.223,67.168 C328.526,63.774 327.629,59.976 327.629,56.182 L327.629,55.735 C327.629,37.77 342.245,23.154 360.21,23.154 L424.856,23.154 L424.856,54.289 C424.856,59.321 423.667,64.359 421.417,68.86 L417.632,76.429 C417.111,77.471 416.84,78.618 416.84,79.783 L416.84,95.815 C416.84,106.89 412.462,117.237 404.512,124.952 C396.566,132.663 386.072,136.725 374.989,136.393 C353.294,135.744 335.645,116.635 335.645,93.8 Z M394.096,155.533 L387.943,161.686 C384.818,164.811 380.662,166.533 376.241,166.533 C371.821,166.533 367.665,164.811 364.54,161.686 L358.386,155.532 C359.136,153.38 359.564,151.099 359.656,148.754 C364.386,150.31 369.375,151.233 374.538,151.388 C375.115,151.406 375.689,151.414 376.264,151.414 C381.968,151.414 387.536,150.55 392.834,148.902 C392.936,151.195 393.362,153.426 394.096,155.533 Z M303.58,194.118 C303.581,186.768 308.517,180.225 315.583,178.206 L342.627,170.479 C344.974,169.808 347.146,168.775 349.112,167.47 L353.934,172.292 C359.892,178.251 367.815,181.533 376.242,181.533 C384.669,181.533 392.592,178.251 398.55,172.292 L403.371,167.471 C405.336,168.776 407.509,169.809 409.856,170.479 L436.9,178.206 C443.967,180.225 448.903,186.768 448.903,194.118 L448.903,264.156 C448.903,273.281 441.48,280.704 432.355,280.704 L399.748,280.704 C399.754,280.531 399.774,280.362 399.774,280.188 L399.774,263.64 L424.338,263.64 C428.48,263.64 431.838,260.282 431.838,256.14 L431.838,208.043 C431.838,203.901 428.48,200.543 424.338,200.543 C420.196,200.543 416.838,203.901 416.838,208.043 L416.838,248.64 L399.774,248.64 L399.774,216.059 C399.774,207.503 392.814,200.543 384.258,200.543 L303.58,200.543 L303.58,194.118 Z M287.548,216.059 C287.548,215.774 287.779,215.543 288.064,215.543 L384.258,215.543 C384.543,215.543 384.774,215.774 384.774,216.059 L384.774,280.188 C384.774,280.473 384.543,280.704 384.258,280.704 L288.064,280.704 C287.779,280.704 287.548,280.473 287.548,280.188 L287.548,216.059 Z M89.948,133.447 C89.794,133.392 89.714,133.279 89.673,133.193 C89.61,133.058 89.637,132.984 89.649,132.951 C96.724,113.387 102.042,80.896 103.16,64.965 C104.12,51.295 109.514,38.699 118.347,29.5 C127.368,20.105 138.933,15.14 151.792,15.14 C164.648,15.14 176.211,20.105 185.232,29.5 C194.065,38.699 199.459,51.294 200.419,64.965 C201.538,80.898 206.856,113.389 213.93,132.951 C213.942,132.983 213.969,133.058 213.905,133.193 C213.865,133.278 213.784,133.392 213.631,133.447 C202.152,137.549 178.854,144.429 151.788,144.429 C124.721,144.429 101.426,137.548 89.948,133.447 Z M96.193,312.768 L31.032,312.768 L31.032,295.704 L96.193,295.704 L96.193,312.768 Z M111.193,328.8 L111.193,224.075 C111.193,219.37 115.021,215.543 119.725,215.543 L183.854,215.543 C188.559,215.543 192.386,219.371 192.386,224.075 L192.386,328.8 L111.193,328.8 Z M183.855,200.543 L119.726,200.543 C106.75,200.543 96.194,211.1 96.194,224.075 L96.194,280.704 L95.678,280.704 C86.553,280.704 79.13,273.281 79.13,264.156 L79.13,194.118 C79.13,186.768 84.066,180.225 91.132,178.206 L118.175,170.479 C124.639,168.632 129.85,164.225 132.749,158.42 C138.821,159.052 145.198,159.429 151.789,159.429 C158.392,159.429 164.78,159.05 170.863,158.416 C173.778,164.19 179.003,168.65 185.406,170.48 L212.45,178.207 C219.517,180.226 224.453,186.769 224.453,194.119 L224.453,264.157 C224.453,273.282 217.03,280.705 207.905,280.705 L207.389,280.705 L207.389,224.076 C207.387,211.099 196.831,200.543 183.855,200.543 Z M207.387,312.768 L207.387,295.704 L207.903,295.704 L480.967,295.704 L480.967,312.768 L207.387,312.768 Z" id="Shape"></path>
            <circle id="Oval" cx="336" cy="248.002" r="7.5"></circle>
        </g>
    </g>
</svg>