<?xml version="1.0" encoding="UTF-8"?>
<svg width="159px" height="159px" viewBox="0 0 159 159" version="1.1" xmlns="http://www.w3.org/2000/svg" xmlns:xlink="http://www.w3.org/1999/xlink">
    <!-- Generator: Sketch 49.2 (51160) - http://www.bohemiancoding.com/sketch -->
    <title>compass</title>
    <desc>Created with Sketch.</desc>
    <defs></defs>
    <g id="Page-1" stroke="none" stroke-width="1" fill="none" fill-rule="evenodd">
        <g id="compass" fill="#0A80F0" fill-rule="nonzero">
            <path d="M135.714787,23.309948 C120.708473,8.31230858 100.745713,0.0345132833 79.5054177,0 C79.4622759,0 79.420752,0 79.3781495,0 C60.9825129,0 43.0625139,6.42378486 28.90771,18.0952066 C27.5287923,19.2319879 27.3330366,21.2715072 28.4692821,22.6498815 C29.6060669,24.028795 31.6455925,24.22455 33.023971,23.088308 C46.0236549,12.3697765 62.4800704,6.47124063 79.3781495,6.47124063 C79.4164378,6.47124063 79.4568832,6.47124063 79.4951715,6.47124063 C119.766365,6.53595303 152.529279,39.2966087 152.529279,79.4997304 C152.529279,119.767564 119.768522,152.52822 79.5005642,152.52822 C39.2768265,152.528759 6.51607,119.766486 6.47131045,79.4964947 C6.46160355,70.9803421 7.90145903,62.6405307 10.7504315,54.7089468 C11.3544158,53.0269635 10.4807956,51.1740316 8.79880715,50.5700491 C7.1184365,49.9660667 5.26388108,50.8396842 4.65989676,52.5216675 C1.55746661,61.1591559 -0.0101962609,70.2372279 4.99016188e-05,79.5035053 C0.0485843557,123.338071 35.7122405,159 79.500025,159 C123.336883,159 159,123.336454 159,79.5002696 C159.000539,58.271904 150.730808,38.3162157 135.714787,23.309948 Z" id="Shape"></path>
            <path d="M103.403151,25.8249359 C96.001751,22.623237 88.1277836,21 79.9997303,21 C47.4670175,21 21,47.4675569 21,79.9997303 C21,112.531904 47.4675569,139 79.9997303,139 C112.531904,139 139,112.532443 139,79.9997303 C139,78.2124972 137.550469,76.7629665 135.763236,76.7629665 L123.925852,76.7629665 C122.138619,76.7629665 120.689088,78.2124972 120.689088,79.9997303 C120.689088,81.7869633 122.138619,83.2364941 123.925852,83.2364941 L132.423975,83.2364941 C130.811527,109.626369 109.627448,130.810988 83.2370335,132.423435 L83.2370335,123.925312 C83.2370335,122.138079 81.7875028,120.688548 80.0002697,120.688548 C78.2130367,120.688548 76.7635059,122.138079 76.7635059,123.925312 L76.7635059,132.423435 C50.3736313,130.810988 29.1890124,109.626908 27.5765646,83.2364941 L36.0746879,83.2364941 C37.8619209,83.2364941 39.3114517,81.7869633 39.3114517,79.9997303 C39.3114517,78.2124972 37.8619209,76.7629665 36.0746879,76.7629665 L27.5765646,76.7629665 C29.1890124,50.3730919 50.3730919,29.1884729 76.7635059,27.5760251 L76.7635059,36.0741484 C76.7635059,37.8613815 78.2130367,39.3109122 80.0002697,39.3109122 C81.7875028,39.3109122 83.2370335,37.8613815 83.2370335,36.0741484 L83.2370335,27.5749462 C89.3291624,27.9423189 95.2351774,29.3449165 100.8337,31.7665553 C102.4742,32.4770249 104.379575,31.72178 105.089505,30.0807408 C105.799435,28.4397016 105.043651,26.5348661 103.403151,25.8249359 Z" id="Shape"></path>
            <path d="M102.536497,52.2376458 L73.8095456,63.8729352 C71.5714824,64.6919713 69.5189777,65.9935571 67.7834914,67.7290048 C66.2968591,69.2156039 65.1559175,70.9169702 64.3520108,72.7330231 C64.2708628,72.8709717 64.1956656,73.0137891 64.1334521,73.1663441 L52.2376888,102.535334 C51.7480956,103.743331 52.0288678,105.127145 52.9507097,106.048966 C53.5712218,106.670005 54.4016368,107 55.2466585,107 C55.6561857,107 56.0694998,106.9221 56.4638793,106.763053 L85.8362277,94.8708004 C85.9779663,94.8134571 86.1110491,94.7442123 86.239804,94.6695577 C88.0916025,93.8510626 89.7967936,92.6922943 91.2709831,91.2175965 C92.8420094,89.6466052 94.0289349,87.8354211 94.8377105,85.9019766 C94.8474482,85.8792556 94.8609729,85.8597805 94.8701697,85.8370596 L106.762687,56.4653651 C107.251739,55.257368 106.970967,53.8735541 106.049125,52.9517328 C105.128365,52.0288295 103.74452,51.7480635 102.536497,52.2376458 Z M79.5272373,69.3557165 C82.2300083,69.3557165 84.7704833,70.4079128 86.6812494,72.3191773 C90.6261266,76.2639667 90.6261266,82.6820936 86.6812494,86.626883 C84.7704833,88.5376066 82.2294673,89.5903439 79.5272373,89.5903439 C76.8250072,89.5903439 74.2845322,88.5381476 72.3732251,86.626883 C68.4283479,82.6820936 68.4283479,76.2639667 72.3732251,72.3191773 C73.3037228,71.3887004 74.3856968,70.6659578 75.5612615,70.164474 C75.5753272,70.1590643 75.5893929,70.1552775 75.6034585,70.1498677 L75.8371649,70.0551971 C76.998123,69.6002371 78.2434751,69.3557165 79.5272373,69.3557165 Z M65.1878357,87.8538142 C65.8900369,89.0553196 66.7539931,90.1875802 67.7829504,91.2165146 C68.8021699,92.2357114 69.9322918,93.1034352 71.1441026,93.8142763 L61.1320562,97.8683427 L65.1878357,87.8538142 Z M93.8498682,71.0603286 C93.150913,69.8701836 92.2923666,68.7487426 91.2720651,67.7284638 C90.2625834,66.7190045 89.1449042,65.8577724 87.946618,65.1507181 L97.8699426,61.1312742 L93.8498682,71.0603286 Z" id="Shape"></path>
        </g>
    </g>
</svg>