<?xml version="1.0" encoding="UTF-8"?>
<svg width="1036px" height="990px" viewBox="0 0 1036 990" version="1.1" xmlns="http://www.w3.org/2000/svg" xmlns:xlink="http://www.w3.org/1999/xlink">
    <!-- Generator: Sketch 49 (51002) - http://www.bohemiancoding.com/sketch -->
    <title>linkedin-icon-1</title>
    <desc>Created with Sketch.</desc>
    <defs></defs>
    <g id="Page-1" stroke="none" stroke-width="1" fill="none" fill-rule="evenodd">
        <g id="linkedin-icon-1" fill="#373A40" fill-rule="nonzero">
            <path d="M0,115 C0,81.666 11.667,54.166 35,32.5 C58.333,10.833 88.667,0 126,0 C162.667,0 192.333,10.666 215,32 C238.333,54 250,82.666 250,118 C250,150 238.667,176.666 216,198 C192.667,220 162,231 124,231 L123,231 C86.333,231 56.667,220 34,198 C11.333,176 0,148.333 0,115 Z M13,990 L13,322 L235,322 L235,990 L13,990 Z M358,990 L580,990 L580,617 C580,593.666 582.667,575.666 588,563 C597.333,540.333 611.5,521.166 630.5,505.5 C649.5,489.833 673.333,482 702,482 C776.667,482 814,532.333 814,633 L814,990 L1036,990 L1036,607 C1036,508.333 1012.667,433.5 966,382.5 C919.333,331.5 857.667,306 781,306 C695,306 628,343 580,417 L580,419 L579,419 L580,417 L580,322 L358,322 C359.333,343.333 360,409.666 360,521 C360,632.333 359.333,788.666 358,990 Z" id="Shape"></path>
        </g>
    </g>
</svg>