<?xml version="1.0" encoding="UTF-8"?>
<svg width="259px" height="374px" viewBox="0 0 259 374" version="1.1" xmlns="http://www.w3.org/2000/svg" xmlns:xlink="http://www.w3.org/1999/xlink">
    <!-- Generator: Sketch 49 (51002) - http://www.bohemiancoding.com/sketch -->
    <title>list-with-squares</title>
    <desc>Created with Sketch.</desc>
    <defs></defs>
    <g id="Page-1" stroke="none" stroke-width="1" fill="none" fill-rule="evenodd">
        <g id="list-with-squares" fill="#0A80F0" fill-rule="nonzero">
            <path d="M54.496,154.707 L100.754,154.707 C103.516,154.707 105.754,152.468 105.754,149.707 L105.754,103.449 C105.754,100.688 103.516,98.449 100.754,98.449 L54.496,98.449 C51.734,98.449 49.496,100.688 49.496,103.449 L49.496,149.707 C49.496,152.468 51.734,154.707 54.496,154.707 Z M59.496,108.449 L95.754,108.449 L95.754,144.707 L59.496,144.707 L59.496,108.449 Z" id="Shape"></path>
            <path d="M49.496,222.707 C49.496,225.468 51.734,227.707 54.496,227.707 L100.754,227.707 C103.516,227.707 105.754,225.468 105.754,222.707 L105.754,176.449 C105.754,173.688 103.516,171.449 100.754,171.449 L54.496,171.449 C51.734,171.449 49.496,173.688 49.496,176.449 L49.496,222.707 Z M59.496,181.449 L95.754,181.449 L95.754,217.707 L59.496,217.707 L59.496,181.449 Z" id="Shape"></path>
            <path d="M49.496,295.707 C49.496,298.468 51.734,300.707 54.496,300.707 L100.754,300.707 C103.516,300.707 105.754,298.468 105.754,295.707 L105.754,249.449 C105.754,246.688 103.516,244.449 100.754,244.449 L54.496,244.449 C51.734,244.449 49.496,246.688 49.496,249.449 L49.496,295.707 Z M59.496,254.449 L95.754,254.449 L95.754,290.707 L59.496,290.707 L59.496,254.449 Z" id="Shape"></path>
            <path d="M195.162,121.578 L142.495,121.578 C139.733,121.578 137.495,123.817 137.495,126.578 C137.495,129.339 139.733,131.578 142.495,131.578 L195.162,131.578 C197.924,131.578 200.162,129.339 200.162,126.578 C200.162,123.817 197.924,121.578 195.162,121.578 Z" id="Shape"></path>
            <path d="M123.162,131.578 L129.162,131.578 C131.924,131.578 134.162,129.339 134.162,126.578 C134.162,123.817 131.924,121.578 129.162,121.578 L123.162,121.578 C120.4,121.578 118.162,123.817 118.162,126.578 C118.162,129.339 120.4,131.578 123.162,131.578 Z" id="Shape"></path>
            <path d="M195.162,194.578 L171.162,194.578 C168.4,194.578 166.162,196.817 166.162,199.578 C166.162,202.339 168.4,204.578 171.162,204.578 L195.162,204.578 C197.924,204.578 200.162,202.339 200.162,199.578 C200.162,196.817 197.924,194.578 195.162,194.578 Z" id="Shape"></path>
            <path d="M123.162,204.578 L156.495,204.578 C159.257,204.578 161.495,202.339 161.495,199.578 C161.495,196.817 159.257,194.578 156.495,194.578 L123.162,194.578 C120.4,194.578 118.162,196.817 118.162,199.578 C118.162,202.339 120.4,204.578 123.162,204.578 Z" id="Shape"></path>
            <path d="M123.162,277.578 L195.162,277.578 C197.924,277.578 200.162,275.339 200.162,272.578 C200.162,269.817 197.924,267.578 195.162,267.578 L123.162,267.578 C120.4,267.578 118.162,269.817 118.162,272.578 C118.162,275.339 120.4,277.578 123.162,277.578 Z" id="Shape"></path>
            <path d="M88.577,111.195 C86.058,110.068 83.099,111.196 81.97,113.717 L75.545,128.077 L71.366,122.591 C69.692,120.395 66.556,119.968 64.358,121.644 C62.162,123.317 61.738,126.455 63.411,128.651 L72.693,140.834 C73.645,142.083 75.121,142.804 76.67,142.804 C76.861,142.804 77.054,142.793 77.245,142.771 C78.998,142.568 80.515,141.457 81.235,139.846 L91.098,117.8 C92.227,115.281 91.098,112.323 88.577,111.195 Z" id="Shape"></path>
            <g id="Group">
                <path d="M5.367,77.501 C8.128,77.501 10.367,75.262 10.367,72.501 L10.367,49.659 C10.367,44.445 14.609,40.202 19.824,40.202 L74.684,40.202 L74.684,60.272 L33.001,60.272 C30.24,60.272 28.001,62.511 28.001,65.272 L28.001,323.482 C28.001,326.243 30.24,328.482 33.001,328.482 L226.661,328.482 C229.422,328.482 231.661,326.243 231.661,323.482 L231.661,65.272 C231.661,62.511 229.422,60.272 226.661,60.272 L185.35,60.272 L185.35,40.202 L239.221,40.202 C244.426,40.202 248.661,44.446 248.661,49.662 L248.661,320.052 C248.661,322.813 250.9,325.052 253.661,325.052 C256.422,325.052 258.661,322.813 258.661,320.052 L258.661,49.662 C258.661,38.932 249.94,30.202 239.221,30.202 L185.35,30.202 L185.35,22.333 C185.35,19.572 183.111,17.333 180.35,17.333 L160.613,17.333 C154.219,6.709 142.535,0 130.017,0 C117.499,0 105.815,6.709 99.421,17.333 L79.684,17.333 C76.923,17.333 74.684,19.572 74.684,22.333 L74.684,30.202 L19.824,30.202 C9.095,30.202 0.367,38.93 0.367,49.659 L0.367,72.502 C0.367,75.263 2.606,77.501 5.367,77.501 Z M79.684,81.333 L136.685,81.333 C139.446,81.333 141.685,79.094 141.685,76.333 C141.685,73.572 139.446,71.333 136.685,71.333 L84.684,71.333 L84.684,27.333 L102.394,27.333 C104.311,27.333 106.061,26.236 106.895,24.51 C111.158,15.696 120.234,10 130.017,10 C139.8,10 148.876,15.696 153.139,24.51 C153.974,26.236 155.723,27.333 157.64,27.333 L175.35,27.333 L175.35,71.333 L155.684,71.333 C152.923,71.333 150.684,73.572 150.684,76.333 C150.684,79.094 152.923,81.333 155.684,81.333 L180.35,81.333 C183.111,81.333 185.35,79.094 185.35,76.333 L185.35,70.272 L221.661,70.272 L221.661,318.482 L38.001,318.482 L38.001,70.272 L74.684,70.272 L74.684,76.333 C74.684,79.095 76.922,81.333 79.684,81.333 Z" id="Shape"></path>
                <path d="M5.373,83.953 C2.612,83.953 0.373,86.192 0.373,88.953 L0.373,95.771 C0.373,98.532 2.612,100.771 5.373,100.771 C8.134,100.771 10.373,98.532 10.373,95.771 L10.373,88.953 C10.373,86.191 8.134,83.953 5.373,83.953 Z" id="Shape"></path>
                <path d="M253.664,332.755 C250.903,332.755 248.664,334.994 248.664,337.755 L248.664,353.582 C248.664,358.792 244.425,363.031 239.215,363.031 L19.822,363.031 C14.612,363.031 10.373,358.792 10.373,353.582 L10.373,112.223 C10.373,109.462 8.134,107.223 5.373,107.223 C2.612,107.223 0.373,109.462 0.373,112.223 L0.373,353.582 C0.373,364.306 9.098,373.031 19.822,373.031 L239.215,373.031 C249.939,373.031 258.664,364.306 258.664,353.582 L258.664,337.755 C258.664,334.994 256.425,332.755 253.664,332.755 Z" id="Shape"></path>
                <circle id="Oval" cx="129.831" cy="30.396" r="9.75"></circle>
            </g>
        </g>
    </g>
</svg>