<svg width="376" height="478" viewBox="0 0 376 478" fill="none" xmlns="http://www.w3.org/2000/svg">
<path d="M358.6 170.667H341.533V153.6C341.533 68.769 272.764 0 187.933 0C103.102 0 34.333 68.769 34.333 153.6V170.667H17.2669C7.84095 170.667 0.199951 178.308 0.199951 187.734V460.8C0.199951 470.226 7.84095 477.867 17.2669 477.867H358.6C368.026 477.867 375.667 470.226 375.667 460.8V187.733C375.667 178.308 368.026 170.667 358.6 170.667ZM236.205 324.055C231.05 338.636 219.581 350.105 205 355.26V392.534C205 401.96 197.359 409.601 187.933 409.601C178.507 409.601 170.866 401.96 170.866 392.534V355.26C144.206 345.834 130.235 316.581 139.661 289.921C149.087 263.261 178.34 249.29 205 258.716C231.66 268.142 245.631 297.395 236.205 324.055ZM307.4 170.667H68.4669V153.6C68.4669 87.62 121.954 34.133 187.934 34.133C253.914 34.133 307.4 87.62 307.4 153.6V170.667Z" fill="#A7A7A8"/>
</svg>
