<?xml version="1.0" encoding="UTF-8"?>
<svg width="86px" height="86px" viewBox="0 0 86 86" version="1.1" xmlns="http://www.w3.org/2000/svg" xmlns:xlink="http://www.w3.org/1999/xlink">
    <!-- Generator: Sketch 49 (51002) - http://www.bohemiancoding.com/sketch -->
    <title>man</title>
    <desc>Created with Sketch.</desc>
    <defs></defs>
    <g id="Page-1" stroke="none" stroke-width="1" fill="none" fill-rule="evenodd">
        <g id="man" fill="#0A80F0" fill-rule="nonzero">
            <path d="M43,86 C19.2900606,86 0,66.7099394 0,43 C0,19.2900606 19.2900606,0 43,0 C66.7099394,0 86,19.2900606 86,43 C86,66.7099394 66.7099394,86 43,86 Z M43,2.60606061 C20.726,2.60606061 2.60606061,20.726 2.60606061,43 C2.60606061,65.274 20.726,83.3939394 43,83.3939394 C65.274,83.3939394 83.3939394,65.274 83.3939394,43 C83.3939394,20.726 65.274,2.60606061 43,2.60606061 Z" id="Shape"></path>
            <path d="M43.5,86 C34.5246299,86 25.8993907,83.2431218 18.5492551,78.0264204 C18.1573175,77.7476057 17.9482841,77.2707543 18.0109941,76.793903 C18.0737042,76.3170517 18.3977059,75.9105555 18.8523534,75.7437878 C29.6855075,71.7439692 31.433549,68.497211 31.433549,62.274692 C31.433549,60.6304669 31.0625148,60.0910777 30.3936081,59.1113176 C29.5078292,57.8240796 28.2954357,56.0599902 27.4436247,51.4530331 C27.3182047,50.7911739 27.2110751,50.739059 26.6179429,50.452427 C25.0345152,49.6915495 23.5791204,48.5971366 23.1976345,43.6045292 C23.1976345,41.1863979 24.033768,39.8496507 24.726191,39.1539168 C24.5746418,38.294021 24.3264147,36.8113521 24.093865,35.1957902 C22.9102136,27.9596364 22.8579553,19.0974977 33.0640093,14.9778149 C41.9583789,11.3818869 49.0576746,13.3466186 51.2864928,15.6891833 C52.8646947,15.7386925 56.9356195,16.1504002 59.7680216,19.4362446 C64.1263672,24.4913898 62.7389083,36.0165999 62.2633574,39.1408881 C62.9583933,39.8209875 63.8023655,41.1394945 63.8023655,43.5055109 C63.4208796,48.5971366 61.9654848,49.6941552 60.3794442,50.452427 C59.7836991,50.739059 59.6765695,50.7885681 59.5537624,51.4530331 C58.7019514,56.0599902 57.4921708,57.8240796 56.6063919,59.1113176 C55.9348723,60.088472 55.566451,60.6304669 55.566451,62.274692 C55.566451,68.497211 57.3144925,71.7439692 68.1476466,75.7437878 C68.6022941,75.9105555 68.9262958,76.3144459 68.9890059,76.793903 C69.0517159,77.2733601 68.8426825,77.7476057 68.4507449,78.0264204 C61.1006093,83.2431218 52.4753701,86 43.5,86 Z M22.1184998,77.2733601 C28.5515015,81.2862073 35.8937985,83.394255 43.5,83.394255 C51.1062015,83.394255 58.4484985,81.2862073 64.8815002,77.2733601 C55.8042264,73.5575677 52.9535339,69.8105065 52.9535339,62.2772977 C52.9535339,59.8252917 53.6799248,58.7647535 54.4507354,57.6416774 C55.2450622,56.4847267 56.2327448,55.0463554 56.9878778,50.9813933 C57.3510733,49.0166616 58.4929181,48.4694551 59.2480511,48.1072566 C60.0606683,47.7190006 60.8968017,47.3177158 61.1920614,43.4090984 C61.1894485,41.4183092 60.2932179,40.8763142 60.2566371,40.8554683 C59.7758603,40.5792593 59.4649232,39.9981782 59.566827,39.4561832 C60.2148304,35.9931482 61.2809005,25.1923352 57.7874304,21.1351903 C55.4018372,18.3678891 51.6418495,18.2923225 50.9259103,18.3209857 C50.8057161,18.3105628 50.6881348,18.307957 50.5757794,18.2792938 C50.2361002,18.1933042 49.6612584,17.898855 49.486193,17.5965886 C48.7754795,16.3823115 42.585479,13.9407284 34.0438532,17.388129 C25.6015182,20.7964435 25.5832278,28.1029524 26.67804,34.799717 C27.0386226,37.2934149 27.433173,39.448366 27.435786,39.458789 C27.5429156,40.0450816 27.2372043,40.6287685 26.6963304,40.8763142 C26.7041692,40.8763142 25.8105515,41.4209149 25.8105515,43.5029052 C26.1031983,47.3098986 26.9419446,47.7137891 27.7519489,48.1020451 C28.5070819,48.4642436 29.6515396,49.0114501 30.0147351,50.9761818 C30.7672552,55.0411439 31.7549378,56.4795152 32.5492646,57.6364659 C33.3226881,58.759542 34.049079,59.8200802 34.049079,62.2720862 C34.049079,69.8131122 31.1983865,73.5601735 22.1184998,77.2733601 Z" id="Shape"></path>
        </g>
    </g>
</svg>