<?xml version="1.0" encoding="UTF-8"?>
<svg width="55px" height="54px" viewBox="0 0 55 54" version="1.1" xmlns="http://www.w3.org/2000/svg" xmlns:xlink="http://www.w3.org/1999/xlink">
    <!-- Generator: Sketch 49.2 (51160) - http://www.bohemiancoding.com/sketch -->
    <title>map-location</title>
    <desc>Created with Sketch.</desc>
    <defs></defs>
    <g id="Page-1" stroke="none" stroke-width="1" fill="none" fill-rule="evenodd">
        <g id="map-location" fill="#0A80F0" fill-rule="nonzero">
            <path d="M51.688,22.013 L40.789,22.013 C40.236,22.013 39.789,22.46 39.789,23.013 C39.789,23.566 40.236,24.013 40.789,24.013 L49.891,24.013 L52.79,51.013 L2.268,51.013 L5.671,24.013 L14.789,24.013 C15.342,24.013 15.789,23.566 15.789,23.013 C15.789,22.46 15.342,22.013 14.789,22.013 L3.907,22.013 L0,53.013 L55.017,53.013 L51.688,22.013 Z" id="Shape"></path>
            <path d="M26.654,37.968 C26.507,38.055 26.35,38.132 26.209,38.223 C25.989,38.365 25.774,38.514 25.563,38.668 C25.118,38.995 25.022,39.621 25.348,40.066 C25.544,40.333 25.848,40.474 26.156,40.474 C26.361,40.474 26.568,40.411 26.747,40.281 C26.925,40.15 27.106,40.024 27.295,39.902 C27.616,39.694 27.957,39.499 28.309,39.321 C28.777,39.084 28.967,38.53 28.771,38.052 C28.779,38.044 28.789,38.038 28.796,38.03 C30.605,36.114 36.701,28.934 39.225,16.972 C39.737,14.546 39.852,12.218 39.567,10.053 C38.707,3.478 34.622,0.002 27.754,0.002 C20.888,0.002 16.803,3.478 15.941,10.053 C15.657,12.219 15.772,14.547 16.284,16.972 C18.783,28.818 24.783,35.97 26.654,37.968 Z M17.924,10.314 C18.657,4.722 21.873,2.003 27.755,2.003 C33.638,2.003 36.853,4.722 37.585,10.314 C37.84,12.254 37.733,14.357 37.269,16.561 C35,27.314 29.59,34.137 27.755,36.207 C25.918,34.135 20.509,27.309 18.241,16.561 C17.776,14.357 17.67,12.255 17.924,10.314 Z" id="Shape"></path>
            <path d="M27.755,18.925 C31.806,18.925 35.101,15.63 35.101,11.579 C35.101,7.528 31.806,4.233 27.755,4.233 C23.704,4.233 20.409,7.528 20.409,11.579 C20.409,15.63 23.704,18.925 27.755,18.925 Z M27.755,6.234 C30.702,6.234 33.101,8.632 33.101,11.58 C33.101,14.528 30.703,16.926 27.755,16.926 C24.807,16.926 22.409,14.528 22.409,11.58 C22.409,8.632 24.808,6.234 27.755,6.234 Z" id="Shape"></path>
            <path d="M31.428,36.17 C30.888,36.284 30.544,36.816 30.659,37.357 C30.759,37.827 31.174,38.148 31.636,38.148 C31.705,38.148 31.776,38.141 31.846,38.126 C32.432,38.002 33.067,37.897 33.732,37.813 C34.28,37.746 34.67,37.246 34.601,36.698 C34.533,36.149 34.038,35.753 33.486,35.829 C32.763,35.918 32.07,36.033 31.428,36.17 Z" id="Shape"></path>
            <path d="M36.599,36.576 C36.621,37.113 37.065,37.533 37.597,37.533 C37.612,37.533 37.626,37.533 37.641,37.532 L39.642,37.449 C40.193,37.424 40.621,36.956 40.595,36.405 C40.57,35.852 40.056,35.421 39.551,35.451 L37.555,35.534 C37.003,35.557 36.575,36.023 36.599,36.576 Z" id="Shape"></path>
            <path d="M22.433,41.177 C21.919,41.565 21.388,41.938 20.853,42.284 C20.39,42.585 20.258,43.204 20.559,43.668 C20.75,43.963 21.072,44.123 21.399,44.123 C21.586,44.123 21.774,44.071 21.943,43.962 C22.516,43.59 23.087,43.19 23.638,42.774 C24.078,42.441 24.166,41.814 23.834,41.373 C23.501,40.936 22.876,40.844 22.433,41.177 Z" id="Shape"></path>
            <path d="M44.72,34.583 C44.382,34.82 43.943,34.992 43.374,35.109 C42.833,35.22 42.485,35.75 42.597,36.291 C42.695,36.764 43.111,37.089 43.576,37.089 C43.643,37.089 43.711,37.082 43.779,37.068 C44.621,36.894 45.305,36.616 45.875,36.215 L46.009,36.117 C46.449,35.783 46.536,35.156 46.203,34.716 C45.869,34.276 45.243,34.19 44.802,34.522 L44.72,34.583 Z" id="Shape"></path>
            <path d="M8.86,42.402 C9.005,41.869 8.689,41.32 8.156,41.176 C7.627,41.027 7.074,41.345 6.93,41.88 C6.804,42.344 6.729,42.818 6.705,43.285 C6.7,43.4 6.697,43.516 6.697,43.638 C6.698,43.834 6.707,44.03 6.726,44.225 C6.779,44.74 7.213,45.123 7.72,45.123 C7.753,45.123 7.787,45.121 7.823,45.118 C8.372,45.061 8.772,44.571 8.717,44.021 C8.703,43.89 8.698,43.757 8.697,43.631 C8.697,43.548 8.7,43.465 8.704,43.383 C8.72,43.059 8.772,42.728 8.86,42.402 Z" id="Shape"></path>
            <path d="M44.698,26.81 C43.904,26.704 43.094,26.769 42.312,26.991 C41.78,27.14 41.471,27.693 41.622,28.224 C41.746,28.665 42.147,28.953 42.583,28.953 C42.674,28.953 42.765,28.941 42.855,28.915 C43.375,28.769 43.91,28.723 44.43,28.793 C44.992,28.863 45.482,28.482 45.555,27.936 C45.629,27.387 45.245,26.884 44.698,26.81 Z" id="Shape"></path>
            <path d="M46.688,31.764 C46.525,32.291 46.821,32.852 47.348,33.014 C47.447,33.045 47.545,33.059 47.643,33.059 C48.071,33.059 48.466,32.784 48.598,32.354 C48.697,32.036 48.758,31.713 48.781,31.391 C48.786,31.308 48.789,31.224 48.789,31.141 C48.789,30.673 48.703,30.204 48.534,29.749 C48.342,29.23 47.763,28.968 47.249,29.159 C46.73,29.351 46.467,29.927 46.659,30.444 C46.745,30.676 46.789,30.911 46.789,31.14 L46.786,31.257 C46.774,31.423 46.742,31.589 46.688,31.764 Z" id="Shape"></path>
            <path d="M17.481,44.164 C16.895,44.439 16.298,44.694 15.707,44.923 C15.192,45.121 14.936,45.7 15.135,46.216 C15.288,46.612 15.666,46.856 16.068,46.856 C16.188,46.856 16.31,46.835 16.428,46.789 C17.063,46.544 17.703,46.27 18.331,45.976 C18.831,45.742 19.046,45.146 18.811,44.646 C18.578,44.145 17.984,43.928 17.481,44.164 Z" id="Shape"></path>
            <path d="M10.201,40.001 C10.362,40.001 10.526,39.962 10.679,39.879 C10.967,39.722 11.274,39.624 11.59,39.59 C11.725,39.574 11.863,39.574 11.996,39.592 C12.559,39.665 13.046,39.279 13.118,38.732 C13.19,38.184 12.805,37.682 12.258,37.61 C11.96,37.571 11.657,37.569 11.367,37.602 C10.793,37.665 10.239,37.841 9.721,38.123 C9.236,38.388 9.057,38.994 9.322,39.479 C9.504,39.813 9.847,40.001 10.201,40.001 Z" id="Shape"></path>
            <path d="M9.993,47.842 C10.209,47.898 10.429,47.94 10.647,47.966 C10.903,47.997 11.159,48.013 11.416,48.013 C11.729,48.013 12.043,47.991 12.356,47.951 C12.904,47.882 13.293,47.382 13.223,46.834 C13.153,46.286 12.656,45.9 12.106,45.967 C11.702,46.019 11.294,46.031 10.89,45.982 C10.758,45.965 10.626,45.94 10.496,45.907 C9.961,45.764 9.416,46.088 9.276,46.623 C9.139,47.158 9.459,47.704 9.993,47.842 Z" id="Shape"></path>
        </g>
    </g>
</svg>