<?xml version="1.0" encoding="UTF-8"?>
<svg width="126px" height="121px" viewBox="0 0 126 121" version="1.1" xmlns="http://www.w3.org/2000/svg" xmlns:xlink="http://www.w3.org/1999/xlink">
    <!-- Generator: Sketch 49.2 (51160) - http://www.bohemiancoding.com/sketch -->
    <title>map</title>
    <desc>Created with Sketch.</desc>
    <defs></defs>
    <g id="Page-1" stroke="none" stroke-width="1" fill="none" fill-rule="evenodd">
        <g id="map" fill="#0A80F0" fill-rule="nonzero">
            <path d="M124.870667,0.333232503 C124.170667,-0.0902658034 123.298,-0.108881114 122.577,0.270405831 L84,20.6378821 L45.4253333,0.270405831 C45.395,0.254117435 45.36,0.249463607 45.3296667,0.235502125 C45.2176667,0.181983108 45.1033333,0.142425574 44.9866667,0.107521867 C44.9213333,0.0889065571 44.8583333,0.0679643332 44.793,0.0540028505 C44.6646667,0.028406799 44.534,0.0190991439 44.401,0.0144453164 C44.3426667,0.0121184026 44.2843333,0.00513766131 44.2236667,0.00746457509 C44.0976667,0.0144453164 43.974,0.0377144541 43.8503333,0.0656374194 C43.7803333,0.079598902 43.7103333,0.0889065571 43.6426667,0.109848781 C43.6263333,0.114502609 43.61,0.114502609 43.596,0.119156436 L1.596,14.0806391 C0.641666667,14.3970993 0,15.2859804 0,16.2888802 L0,116.346172 C0,117.093112 0.359333333,117.79584 0.970666667,118.235626 C1.372,118.521837 1.85033333,118.673086 2.33333333,118.673086 C2.58066667,118.673086 2.83033333,118.633529 3.07066667,118.552087 L44.2446667,104.86518 L83.111,120.825481 C83.1436667,120.839443 83.181,120.834789 83.2136667,120.846424 C83.4703333,120.937173 83.7316667,121 84,121 C84.21,121 84.4176667,120.965096 84.6206667,120.90925 C84.686,120.890635 84.7466667,120.860385 84.812,120.837116 C84.9053333,120.802212 85.0033333,120.776616 85.092,120.730078 L124.758667,99.7878541 C125.521667,99.385298 126,98.5918204 126,97.7308623 L126,2.32739761 C126,1.51065087 125.570667,0.754403896 124.870667,0.333232503 Z M4.66666667,17.9665851 L42,5.55715392 L42,68.3652105 C40.9966667,68.5467097 40.0073333,68.7514782 39.0506667,69.0027848 C37.8046667,69.3332066 37.0626667,70.6060284 37.394,71.8486004 C37.6716667,72.8910578 38.6143333,73.5798242 39.648,73.5798242 C39.844,73.5798242 40.047,73.5542282 40.2476667,73.5030361 C40.8076667,73.3541136 41.419,73.2796524 42,73.1586528 L42,100.709312 L4.66666667,113.116416 L4.66666667,17.9665851 Z M46.6666667,72.507117 C47.4156667,72.4489441 48.1413333,72.3535407 48.909,72.3372523 C50.197,72.3093293 51.219,71.2459297 51.1933333,69.9614733 C51.1653333,68.6933053 50.127,67.6834247 48.86,67.6834247 C48.8436667,67.6834247 48.825,67.6834247 48.8086667,67.6834247 C48.0853333,67.6997131 47.3736667,67.7392707 46.6666667,67.7881359 L46.6666667,6.19240138 L81.6666667,24.6704236 L81.6666667,73.9870341 C80.0006667,73.9148998 78.3066667,73.7194391 76.531,73.3773827 C75.2616667,73.128403 74.0413333,73.9567843 73.7963333,75.2179715 C73.5513333,76.4791588 74.3796667,77.7007885 75.6443333,77.9451145 C77.7116667,78.3453436 79.7183333,78.5408044 81.669,78.6175925 L81.669,115.199004 L46.6666667,100.825658 L46.6666667,72.507117 Z M121.333333,96.3277333 L86.3333333,114.805756 L86.3333333,78.3662859 C87.2013333,77.9730374 87.78,77.0888102 87.703,76.0859104 C87.6353333,75.2156446 87.0753333,74.5175705 86.3333333,74.1755142 L86.3333333,24.6704236 L121.333333,6.19240138 L121.333333,96.3277333 Z" id="Shape"></path>
            <path d="M25.5,19 C19.1589,19 14,24.1761538 14,30.5384615 C14,36.1115385 17.9583,40.7707692 23.2,41.8438462 L23.2,46.6923077 C23.2,47.9684615 24.2304,49 25.5,49 C26.7696,49 27.8,47.9684615 27.8,46.6923077 L27.8,41.8438462 C33.0417,40.7707692 37,36.1115385 37,30.5384615 C37,24.1761538 31.8411,19 25.5,19 Z M25.5,37.4615385 C21.6958,37.4615385 18.6,34.3553846 18.6,30.5384615 C18.6,26.7215385 21.6958,23.6153846 25.5,23.6153846 C29.3042,23.6153846 32.4,26.7215385 32.4,30.5384615 C32.4,34.3553846 29.3042,37.4615385 25.5,37.4615385 Z" id="Shape"></path>
            <path d="M105.44724,62.8370191 C105.720735,62.9496677 106.001067,63 106.276841,63 C107.18849,63 108.04772,62.4223767 108.400984,61.4756496 C109.472172,58.6019135 110.331401,55.356677 110.960439,51.8310175 C111.19291,50.5319641 110.376984,49.2808463 109.13942,49.0339783 C107.895019,48.8182683 106.712154,49.64995 106.479683,50.9514002 C105.905344,54.1822561 105.123605,57.1350858 104.157257,59.7307957 C103.699153,60.9603425 104.275771,62.3528701 105.44724,62.8370191 Z" id="Shape"></path>
            <path d="M30.3270337,73.3649739 C27.4308961,75.1684495 24.8202933,77.4269631 22.5648092,80.0833372 C21.7106046,81.0887093 21.8401749,82.5920026 22.8527433,83.4401364 C23.3038401,83.8165553 23.8533145,84 24.3979899,84 C25.0818334,84 25.7584787,83.7117298 26.23357,83.1542486 C28.1675276,80.8766758 30.4014167,78.939786 32.8752508,77.4031391 C33.9981939,76.702714 34.3365166,75.2327742 33.6334774,74.1178118 C32.9304382,73.0028494 31.4475774,72.6645488 30.3270337,73.3649739 Z" id="Shape"></path>
            <path d="M19.7323864,87.2208566 C18.6371369,86.6670905 17.3411644,87.1895567 16.837175,88.3982113 C14.598677,93.7577034 14.0445069,98.0843015 14.0205074,98.267285 C13.8568745,99.5842851 14.6903114,100.795347 15.8837407,100.975923 C15.9841022,100.992777 16.0866455,101 16.1848252,101 C17.2560753,101 18.1898737,100.12842 18.3447795,98.9269889 C18.349143,98.888466 18.8487688,95.0819265 20.7992729,90.4182535 C21.3032623,89.2071912 20.8254542,87.7794379 19.7323864,87.2208566 Z" id="Shape"></path>
            <path d="M94.3764477,77 C94.7392556,77 95.1091774,76.9148189 95.4530149,76.7347217 C98.5167261,75.1260156 101.217629,72.8431618 103.477472,69.9543053 C104.29794,68.9053608 104.13432,67.3721008 103.112293,66.5324584 C102.092637,65.6976835 100.598722,65.8607445 99.7782542,66.9072553 C97.9381305,69.2606877 95.7565405,71.1079009 93.2927666,72.40022 C92.1260902,73.013524 91.663688,74.4786391 92.2612539,75.6760422 C92.6833442,76.5156845 93.5156682,77 94.3764477,77 Z" id="Shape"></path>
            <path d="M68.531528,70.4959943 C67.4779775,70.0629169 66.8616146,69.7632741 66.8210015,69.7422055 C66.6657163,69.6649538 66.5008751,69.6017479 66.3312558,69.5596106 C63.743965,68.9088239 61.1948983,68.3938129 58.7509477,68.0286233 C57.4489408,67.8273008 56.22816,68.7098424 56.0274838,69.9880062 C55.8291965,71.2661699 56.7250728,72.4624001 58.0294687,72.6566998 C60.2416859,72.989116 62.5518523,73.4526259 64.9026317,74.0378657 C65.2227582,74.1876871 65.8343431,74.4709432 66.6896063,74.8197461 C66.9906208,74.943817 67.3035802,75 67.6093727,75 C68.5434731,75 69.4321824,74.4615794 69.8144229,73.562651 C70.3232807,72.3640798 69.7499198,70.9922777 68.531528,70.4959943 Z" id="Shape"></path>
            <path d="M109.238226,43.995331 C109.290831,43.9976655 109.341045,44 109.39365,44 C110.64422,44 111.696324,43.0521928 111.777623,41.812573 C111.925874,39.5691179 112,37.1949308 112,34.7623812 C112,33.9523095 111.992827,33.1305653 111.976089,32.2924796 C111.952177,31.0015008 110.804427,30.0210105 109.541901,30 C108.221988,30.023345 107.169884,31.0878773 107.193795,32.3765216 C107.208142,33.1865933 107.217707,33.982658 107.217707,34.7623812 C107.217707,37.0968818 107.145972,39.3683508 107.004895,41.5160914 C106.921205,42.8024012 107.920704,43.911289 109.238226,43.995331 Z" id="Shape"></path>
            <path d="M19.684193,64.3163618 C20.1391551,64.7713429 20.7364386,65 21.3337222,65 C21.9310057,65 22.5282893,64.7713429 22.9832514,64.3163618 L26,61.2994875 L29.0167486,64.3163618 C29.4717107,64.7713429 30.0689943,65 30.6662778,65 C31.2635614,65 31.8608449,64.7713429 32.315807,64.3163618 C33.2280643,63.4040665 33.2280643,61.9294613 32.315807,61.017166 L29.2990584,58.0002917 L32.315807,54.9834174 C33.2280643,54.071122 33.2280643,52.5965168 32.315807,51.6842215 C31.4035497,50.7719262 29.9290059,50.7719262 29.0167486,51.6842215 L26,54.7010958 L22.9832514,51.6842215 C22.0709941,50.7719262 20.5964503,50.7719262 19.684193,51.6842215 C18.7719357,52.5965168 18.7719357,54.071122 19.684193,54.9834174 L22.7009416,58.0002917 L19.684193,61.017166 C18.7719357,61.927128 18.7719357,63.4040665 19.684193,64.3163618 Z" id="Shape"></path>
        </g>
    </g>
</svg>