<?xml version="1.0" encoding="UTF-8"?>
<svg width="87px" height="72px" viewBox="0 0 87 72" version="1.1" xmlns="http://www.w3.org/2000/svg" xmlns:xlink="http://www.w3.org/1999/xlink">
    <!-- Generator: Sketch 49.1 (51147) - http://www.bohemiancoding.com/sketch -->
    <title>Shape-path</title>
    <desc>Created with Sketch.</desc>
    <defs></defs>
    <g id="Page-1" stroke="none" stroke-width="1" fill="none" fill-rule="evenodd">
        <path d="M80.1061836,64.2288439 L86.6630231,70.55873 L86.6630231,70.7687262 L53.4041224,70.7687262 L53.4041224,70.55873 L60.0796377,64.2288439 C60.7915689,63.643004 61.1324765,62.7122998 60.9697064,61.7988876 L60.9697064,21.3296161 C60.9697064,19.6196469 60.9697064,17.3096885 61.266396,15.3297241 L38.8366646,71.5787116 L38.569644,71.5787116 L15.3388507,19.8296431 C14.8344785,18.5396663 14.6861337,18.4496679 14.3597751,17.5796836 L14.3597751,51.5090729 C14.0816541,53.7799217 14.4630776,56.0835327 15.4575265,58.1389535 L24.803248,70.55873 L24.803248,70.7687262 L0,70.7687262 L0,70.55873 L9.34572142,58.1089541 C10.3328267,56.0618719 10.7140269,53.7700267 10.4434728,51.5090729 L10.4434728,14.0097479 C10.5954314,12.1633674 10.0434888,10.3281064 8.90068707,8.87984016 L2.28450968,0.20999622 L2.28450968,0 L26.0196752,0 L45.8978763,43.8292111 L63.4025609,0 L86.6333542,0 L86.6333542,0.20999622 L80.1061836,7.55986396 C79.3240288,8.13805946 78.9332348,9.11430576 79.0974391,10.0798186 L79.0974391,61.7988876 C78.9244564,62.7397905 79.3208565,63.6946755 80.1061836,64.2288439 Z" id="Shape-path" fill="#373A40"></path>
    </g>
</svg>