<?xml version="1.0" encoding="UTF-8"?>
<svg width="95px" height="96px" viewBox="0 0 95 96" version="1.1" xmlns="http://www.w3.org/2000/svg" xmlns:xlink="http://www.w3.org/1999/xlink">
    <!-- Generator: Sketch 49 (51002) - http://www.bohemiancoding.com/sketch -->
    <title>notepad</title>
    <desc>Created with Sketch.</desc>
    <defs></defs>
    <g id="Page-1" stroke="none" stroke-width="1" fill="none" fill-rule="evenodd">
        <g id="notepad" fill="#0A80F0" fill-rule="nonzero">
            <path d="M92.8027954,58.5917539 L88.0135752,53.9174033 C86.117387,52.0689847 82.8125057,52.0689847 80.9163175,53.9174033 L55.0437702,79.1605364 L51.4783312,91.9190531 L50.6058829,92.770277 C49.9536479,93.4066447 49.9519669,94.4333617 50.5957967,95.0746498 L50.5873917,95.1074522 L50.619331,95.0992516 C50.9454485,95.410875 51.369065,95.571607 51.7943625,95.571607 C52.2247031,95.571607 52.6550437,95.410875 52.9828422,95.091051 L53.8569716,94.238187 L66.9319292,90.7594862 L92.8027954,65.5163532 C94.7595003,63.6056099 94.7595003,60.500857 92.8027954,58.5917539 Z M58.9252407,80.0117602 L76.1439075,63.2119803 L83.2764667,70.1710222 L66.0577998,86.9708021 L58.9252407,80.0117602 Z M57.4089625,83.1706371 L62.8218403,88.4518331 L55.3782928,90.4331017 L57.4089625,83.1706371 Z M90.425836,63.1955791 L85.653426,67.8518883 L78.5208669,60.8928464 L83.2932768,56.2365373 C83.9186155,55.6247714 85.0095962,55.6247714 85.6349348,56.2365373 L90.425836,60.9108878 C91.0713469,61.5390549 91.0713469,62.5657719 90.425836,63.1955791 Z" id="Shape"></path>
            <path d="M11.9021256,59.0444278 L55.6085923,59.0444278 C56.5365142,59.0444278 57.2896102,58.3112928 57.2896102,57.4043048 C57.2896102,56.4973168 56.5365142,55.7641818 55.6085923,55.7641818 L11.9021256,55.7641818 C10.9742037,55.7641818 10.2211077,56.4973168 10.2211077,57.4043048 C10.2211077,58.3112928 10.9742037,59.0444278 11.9021256,59.0444278 Z" id="Shape"></path>
            <path d="M48.8845205,65.6049198 L11.9021256,65.6049198 C10.9742037,65.6049198 10.2211077,66.3380548 10.2211077,67.2450428 C10.2211077,68.1520308 10.9742037,68.8851658 11.9021256,68.8851658 L48.8845205,68.8851658 C49.8124424,68.8851658 50.5655384,68.1520308 50.5655384,67.2450428 C50.5655384,66.3380548 49.8141234,65.6049198 48.8845205,65.6049198 Z" id="Shape"></path>
            <path d="M11.9021256,29.5222139 L33.7553589,29.5222139 C34.6832809,29.5222139 35.4363769,28.7890789 35.4363769,27.8820909 C35.4363769,26.9751029 34.6832809,26.2419679 33.7553589,26.2419679 L11.9021256,26.2419679 C10.9742037,26.2419679 10.2211077,26.9751029 10.2211077,27.8820909 C10.2211077,28.7890789 10.9742037,29.5222139 11.9021256,29.5222139 Z" id="Shape"></path>
            <path d="M33.7553589,78.7259038 C34.6832809,78.7259038 35.4363769,77.9927688 35.4363769,77.0857808 C35.4363769,76.1787927 34.6832809,75.4456578 33.7553589,75.4456578 L11.9021256,75.4456578 C10.9742037,75.4456578 10.2211077,76.1787927 10.2211077,77.0857808 C10.2211077,77.9927688 10.9742037,78.7259038 11.9021256,78.7259038 L33.7553589,78.7259038 Z" id="Shape"></path>
            <path d="M60.6516461,36.0827059 L11.9021256,36.0827059 C10.9742037,36.0827059 10.2211077,36.8158409 10.2211077,37.7228289 C10.2211077,38.6298169 10.9742037,39.3629519 11.9021256,39.3629519 L60.6516461,39.3629519 C61.579568,39.3629519 62.3326641,38.6298169 62.3326641,37.7228289 C62.3326641,36.8158409 61.581249,36.0827059 60.6516461,36.0827059 Z" id="Shape"></path>
            <path d="M11.9021256,49.2036898 L35.4363769,49.2036898 C36.3642988,49.2036898 37.1173948,48.4705549 37.1173948,47.5635669 C37.1173948,46.6565788 36.3642988,45.9234439 35.4363769,45.9234439 L11.9021256,45.9234439 C10.9742037,45.9234439 10.2211077,46.6565788 10.2211077,47.5635669 C10.2211077,48.4705549 10.9742037,49.2036898 11.9021256,49.2036898 Z" id="Shape"></path>
            <path d="M62.3326641,47.5635669 C62.3326641,46.6565788 61.579568,45.9234439 60.6516461,45.9234439 L48.8845205,45.9234439 C47.9565986,45.9234439 47.2035025,46.6565788 47.2035025,47.5635669 C47.2035025,48.4705549 47.9565986,49.2036898 48.8845205,49.2036898 L60.6516461,49.2036898 C61.581249,49.2036898 62.3326641,48.4705549 62.3326641,47.5635669 Z" id="Shape"></path>
            <path d="M43.3539714,48.7264141 C43.6565547,48.4164308 43.8414666,47.9883587 43.8414666,47.5619267 C43.8414666,47.1354948 43.6565547,46.7090628 43.3539714,46.3974394 C42.7151846,45.7905939 41.5889026,45.7905939 40.9669259,46.3974394 C40.6643427,46.7090628 40.4794307,47.1354948 40.4794307,47.5619267 C40.4794307,48.0064001 40.6643427,48.4164308 40.9669259,48.7264141 C41.2863194,49.0232763 41.723384,49.2020497 42.1604487,49.2020497 C42.5975134,49.2020497 43.036259,49.0232763 43.3539714,48.7264141 Z" id="Shape"></path>
            <path d="M42.1604487,91.8468877 L3.49703589,91.8468877 L3.49703589,13.120984 L15.2641615,13.120984 L15.2641615,16.4012299 C15.2641615,17.308218 16.0172576,18.0413529 16.9451795,18.0413529 L55.6085923,18.0413529 C56.5365142,18.0413529 57.2896102,17.308218 57.2896102,16.4012299 L57.2896102,13.120984 L69.0567358,13.120984 L69.0567358,49.2036898 C69.0567358,50.1106779 69.8098319,50.8438128 70.7377538,50.8438128 C71.6656757,50.8438128 72.4187717,50.1106779 72.4187717,49.2036898 L72.4187717,11.480861 C72.4187717,10.5738729 71.6656757,9.84073797 70.7377538,9.84073797 L57.2896102,9.84073797 L57.2896102,6.56049198 C57.2896102,5.65350396 56.5365142,4.92036898 55.6085923,4.92036898 L45.5224846,4.92036898 L45.5224846,1.64012299 C45.5224846,0.733134979 44.7693885,0 43.8414666,0 L28.7123051,0 C27.7843832,0 27.0312872,0.733134979 27.0312872,1.64012299 L27.0312872,4.92036898 L16.9451795,4.92036898 C16.0172576,4.92036898 15.2641615,5.65350396 15.2641615,6.56049198 L15.2641615,9.84073797 L1.81601795,9.84073797 C0.88809604,9.84073797 0.135,10.5738729 0.135,11.480861 L0.135,93.4870107 C0.135,94.3939987 0.88809604,95.1271337 1.81601795,95.1271337 L42.1604487,95.1271337 C43.0883706,95.1271337 43.8414666,94.3939987 43.8414666,93.4870107 C43.8414666,92.5800227 43.0900516,91.8468877 42.1604487,91.8468877 Z M30.3933231,3.28024599 L42.1604487,3.28024599 L42.1604487,6.56049198 L42.1604487,9.84073797 L30.3933231,9.84073797 L30.3933231,6.56049198 L30.3933231,3.28024599 Z M18.6261974,8.20061497 L27.0312872,8.20061497 L27.0312872,11.480861 C27.0312872,12.387849 27.7843832,13.120984 28.7123051,13.120984 L43.8414666,13.120984 C44.7693885,13.120984 45.5224846,12.387849 45.5224846,11.480861 L45.5224846,8.20061497 L53.9275743,8.20061497 L53.9275743,11.480861 L53.9275743,14.761107 L18.6261974,14.761107 L18.6261974,11.480861 L18.6261974,8.20061497 Z" id="Shape"></path>
        </g>
    </g>
</svg>