<?xml version="1.0" encoding="UTF-8"?>
<svg width="122px" height="81px" viewBox="0 0 122 81" version="1.1" xmlns="http://www.w3.org/2000/svg" xmlns:xlink="http://www.w3.org/1999/xlink">
    <!-- Generator: Sketch 49.2 (51160) - http://www.bohemiancoding.com/sketch -->
    <title>path</title>
    <desc>Created with Sketch.</desc>
    <defs></defs>
    <g id="Page-1" stroke="none" stroke-width="1" fill="none" fill-rule="evenodd">
        <g id="path" fill="#0A80F0" fill-rule="nonzero">
            <path d="M45,57 C38.382,57 33,62.382 33,69 C33,75.618 38.382,81 45,81 C51.618,81 57,75.618 57,69 C57,62.382 51.618,57 45,57 Z M45,77 C40.588,77 37,73.412 37,69 C37,64.588 40.588,61 45,61 C49.412,61 53,64.588 53,69 C53,73.412 49.412,77 45,77 Z" id="Shape"></path>
            <path d="M45,0 C38.382,0 33,5.382 33,12 C33,18.618 38.382,24 45,24 C51.618,24 57,18.618 57,12 C57,5.382 51.618,0 45,0 Z M45,20 C40.588,20 37,16.412 37,12 C37,7.588 40.588,4 45,4 C49.412,4 53,7.588 53,12 C53,16.412 49.412,20 45,20 Z" id="Shape"></path>
            <path d="M12,57 C5.382,57 0,62.382 0,69 C0,75.618 5.382,81 12,81 C18.618,81 24,75.618 24,69 C24,62.382 18.618,57 12,57 Z M12,77 C7.588,77 4,73.412 4,69 C4,64.588 7.588,61 12,61 C16.412,61 20,64.588 20,69 C20,73.412 16.412,77 12,77 Z" id="Shape"></path>
            <path d="M12,0 C5.382,0 0,5.382 0,12 C0,18.618 5.382,24 12,24 C18.618,24 24,18.618 24,12 C24,5.382 18.618,0 12,0 Z M12,20 C7.588,20 4,16.412 4,12 C4,7.588 7.588,4 12,4 C16.412,4 20,7.588 20,12 C20,16.412 16.412,20 12,20 Z" id="Shape"></path>
            <path d="M77,28 C70.382,28 65,33.382 65,40 C65,46.618 70.382,52 77,52 C83.618,52 89,46.618 89,40 C89,33.382 83.618,28 77,28 Z M77,48 C72.588,48 69,44.412 69,40 C69,35.588 72.588,32 77,32 C81.412,32 85,35.588 85,40 C85,44.412 81.412,48 77,48 Z" id="Shape"></path>
            <path d="M77,57 C70.382,57 65,62.382 65,69 C65,75.618 70.382,81 77,81 C83.618,81 89,75.618 89,69 C89,62.382 83.618,57 77,57 Z M77,77 C72.588,77 69,73.412 69,69 C69,64.588 72.588,61 77,61 C81.412,61 85,64.588 85,69 C85,73.412 81.412,77 77,77 Z" id="Shape"></path>
            <path d="M115.9,44.2849697 L115.9,18.2727273 L115.9,4.06060606 L115.9,2.03030303 C115.9,1.3420303 115.5523,0.702484848 114.974833,0.326878788 C114.397367,-0.0466969697 113.669433,-0.103545455 113.041133,0.174606061 L94.7411333,8.29581818 C94.0050667,8.62269697 93.5333333,9.34751515 93.5333333,10.1515152 C93.5333333,10.9555152 94.0050667,11.6803333 94.7411333,12.0072121 L111.833333,19.5924242 L111.833333,42.8190909 C111.170467,42.7074242 110.493367,42.6363636 109.8,42.6363636 C107.2441,42.6363636 104.8712,43.4281818 102.909033,44.776303 L87.779,18.3356667 C88.8444667,16.5266667 89.4666667,14.4273333 89.4666667,12.1818182 C89.4666667,5.46354545 83.9949667,0 77.2666667,0 C70.5383667,0 65.0666667,5.46354545 65.0666667,12.1818182 C65.0666667,14.204 65.5709333,16.1084242 66.4473,17.7874848 L50.7194667,30.0017879 C48.9484333,29.0028788 46.909,28.4242424 44.7333333,28.4242424 C38.7004333,28.4242424 33.6903,32.8239091 32.7163333,38.5757576 L24.217,38.5757576 C23.2450667,32.8239091 18.2349333,28.4242424 12.2,28.4242424 C5.4717,28.4242424 0,33.8877879 0,40.6060606 C0,47.3243333 5.4717,52.7878788 12.2,52.7878788 C18.2329,52.7878788 23.2430333,48.3882121 24.217,42.6363636 L32.7183667,42.6363636 C33.6903,48.3882121 38.7004333,52.7878788 44.7353667,52.7878788 C51.4636667,52.7878788 56.9353667,47.3243333 56.9353667,40.6060606 C56.9353667,37.5606061 55.8028,34.7790909 53.9463667,32.6411818 L68.9035667,21.0258182 C71.0873667,23.0886061 74.0275667,24.3636364 77.2666667,24.3636364 C80.1865333,24.3636364 82.8685,23.3322424 84.9709667,21.6166364 L99.8997,47.704 L99.9261333,47.6877576 C98.4702667,49.6957273 97.6,52.1544242 97.6,54.8181818 C97.6,61.5364545 103.0717,67 109.8,67 C116.5283,67 122,61.5364545 122,54.8181818 C122,50.3210606 119.539667,46.3944545 115.9,44.2849697 Z M12.2,48.7272727 C7.71446667,48.7272727 4.06666667,45.0849091 4.06666667,40.6060606 C4.06666667,36.1272121 7.71446667,32.4848485 12.2,32.4848485 C16.6855333,32.4848485 20.3333333,36.1272121 20.3333333,40.6060606 C20.3333333,45.0849091 16.6855333,48.7272727 12.2,48.7272727 Z M44.7333333,48.7272727 C40.2478,48.7272727 36.6,45.0849091 36.6,40.6060606 C36.6,36.1272121 40.2478,32.4848485 44.7333333,32.4848485 C49.2188667,32.4848485 52.8666667,36.1272121 52.8666667,40.6060606 C52.8666667,45.0849091 49.2188667,48.7272727 44.7333333,48.7272727 Z M77.2666667,20.3030303 C72.7811333,20.3030303 69.1333333,16.6606667 69.1333333,12.1818182 C69.1333333,7.7029697 72.7811333,4.06060606 77.2666667,4.06060606 C81.7522,4.06060606 85.4,7.7029697 85.4,12.1818182 C85.4,16.6606667 81.7522,20.3030303 77.2666667,20.3030303 Z M100.572733,10.1515152 L111.833333,5.15493939 L111.833333,15.1480909 L100.572733,10.1515152 Z M109.8,62.9393939 C105.314467,62.9393939 101.666667,59.2970303 101.666667,54.8181818 C101.666667,50.3393333 105.314467,46.6969697 109.8,46.6969697 C110.505567,46.6969697 111.1786,46.8147273 111.833333,46.9852727 L111.833333,54.8181818 L115.9,54.8181818 L115.9,49.5028485 C117.1505,50.9301515 117.933333,52.775697 117.933333,54.8181818 C117.933333,59.2970303 114.285533,62.9393939 109.8,62.9393939 Z" id="Shape"></path>
            <rect id="Rectangle-path" x="100" y="71" width="4" height="4"></rect>
            <rect id="Rectangle-path" x="108" y="71" width="4" height="4"></rect>
            <rect id="Rectangle-path" x="116" y="71" width="4" height="4"></rect>
        </g>
    </g>
</svg>