<?xml version="1.0" encoding="UTF-8"?>
<svg width="215px" height="211px" viewBox="0 0 215 211" version="1.1" xmlns="http://www.w3.org/2000/svg" xmlns:xlink="http://www.w3.org/1999/xlink">
    <!-- Generator: Sketch 49.1 (51147) - http://www.bohemiancoding.com/sketch -->
    <title>piggy-bank</title>
    <desc>Created with Sketch.</desc>
    <defs></defs>
    <g id="Page-1" stroke="none" stroke-width="1" fill="none" fill-rule="evenodd">
        <g id="piggy-bank" fill="#0A80F0" fill-rule="nonzero">
            <path d="M176.941674,112 C175.252637,112 173.883348,113.363173 173.883348,115.044666 C173.883348,117.176463 172.141362,118.910668 170,118.910668 C167.859049,118.910668 166.116652,117.176463 166.116652,115.044666 C166.116652,113.362765 164.747363,112 163.058326,112 C161.369289,112 160,113.363173 160,115.044666 C160,120.534136 164.486311,125 170,125 C175.513689,125 180,120.533727 180,115.044666 C180,113.362356 178.630711,112 176.941674,112 Z" id="Shape"></path>
            <path d="M206.788008,112.156919 L197.981406,109.331918 C196.853496,108.969857 195.964521,108.068278 195.603809,106.91986 C193.747754,101.010401 190.946875,95.4625834 187.278857,90.429893 C185.607148,88.1359988 183.748154,85.9455506 181.717412,83.8602305 C183.01665,78.152618 183.722959,71.6931297 183.631416,66.1125119 C183.5004,58.1290873 181.907217,53.4466836 178.761162,51.7965937 C177.066777,50.9067898 171.910137,48.2037372 143.999189,60.9982422 C143.338232,61.301011 142.720947,61.6740054 142.149434,62.1012458 C140.267764,61.5949491 138.344521,61.1264984 136.409521,60.7059862 C136.176465,60.6551042 135.93627,60.6101094 135.701533,60.560489 C137.963232,55.6127421 139.283887,50.2390164 139.532061,44.6916191 C139.609326,42.9624728 138.272715,41.4982492 136.545996,41.4212955 C134.823896,41.335511 133.357109,42.6819911 133.280264,44.4111374 C132.87252,53.5324681 129.094063,62.1147022 122.641543,68.5767136 C118.78624,72.4374364 114.27208,75.2418324 109.461035,77.0079838 C101.117607,75.8355957 92.6192285,75.8355957 84.2758008,77.0079838 C79.4643359,75.2418324 74.9505957,72.4374364 71.095293,68.5767136 C64.2110938,61.6828361 60.4196191,52.5169311 60.4196191,42.7673551 C60.4196191,33.0173586 64.2110938,23.8518741 71.095293,16.9579966 C77.9794922,10.0636986 87.1329492,6.26689373 96.868418,6.26689373 C106.603887,6.26689373 115.757344,10.0636986 122.641543,16.9579966 C125.407988,19.7283312 127.694043,22.8897421 129.436299,26.3535013 C130.213574,27.8993043 132.095244,28.5216624 133.638457,27.7428737 C135.18209,26.9649261 135.803154,25.0806108 135.025879,23.5352284 C132.983799,19.4735008 130.305957,15.7700496 127.0671,12.5262182 C119.00082,4.44859886 108.276016,0 96.8688379,0 C85.4616602,0 74.7368555,4.44859886 66.6705762,12.5262182 C58.6042969,20.6042581 54.1619434,31.3437199 54.1619434,42.7669346 C54.1619434,54.1901493 58.6042969,64.9300315 66.6705762,73.0076509 C68.9973633,75.3377092 71.5286523,77.34145 74.2060742,79.0201348 C74.2069141,79.0201348 74.2077539,79.0197143 74.2085938,79.0197143 C72.2630957,79.526011 70.3322949,80.0945435 68.4229102,80.7337221 C66.7839551,81.2824905 65.8995996,83.0574727 66.4475977,84.6991524 C66.9951758,86.3404116 68.7685059,87.2260104 70.407041,86.6776624 C87.4709863,80.9650038 106.266689,80.9650038 123.330635,86.6776624 C123.659854,86.7878366 123.994111,86.8399802 124.32291,86.8399802 C125.631807,86.8399802 126.8521,86.01073 127.290078,84.6991524 C127.838076,83.0578932 126.953721,81.2824905 125.314766,80.7337221 C123.405381,80.0945435 121.47458,79.5255905 119.529082,79.0197143 C119.529922,79.0197143 119.530762,79.0201348 119.531602,79.0201348 C122.209443,77.34145 124.740313,75.3377092 127.0671,73.0076509 C129.125557,70.9463 130.942559,68.695298 132.520205,66.303004 C133.382725,66.4707884 134.238945,66.6465625 135.082568,66.8299058 C136.206279,67.0742234 137.324951,67.336623 138.433545,67.6120585 C138.398691,67.7483045 138.362998,67.8841299 138.334023,68.0224785 C136.808027,75.2742118 136.907129,81.6878643 138.628389,87.0842978 C140.175381,91.9349063 142.967441,95.8645931 146.926045,98.7648659 C151.591797,102.182789 157.224629,103.659208 162.3271,103.659208 C166.167285,103.659208 169.707646,102.822388 172.307803,101.347652 C175.248936,99.67948 177.713037,96.1644183 179.663574,90.8869898 C180.565146,91.9407935 181.419688,93.0202484 182.225098,94.1253545 C185.49083,98.6054918 187.983906,103.543146 189.635039,108.80039 C190.604639,111.888212 193.011631,114.317931 196.073281,115.300668 L204.879883,118.125669 C207.190713,118.867032 208.743164,120.996927 208.743164,123.426647 L208.743164,138.049959 C208.743164,140.479679 207.190713,142.609573 204.879883,143.350936 L190.691143,147.90214 C188.421045,148.630888 186.499902,150.193091 185.281709,152.301539 C179.707246,161.948931 170.943057,169.932355 159.231016,176.030203 C157.878027,176.735402 156.940762,177.996518 156.658574,179.491019 L152.11418,203.587631 C151.988623,204.25162 151.407871,204.733106 150.733057,204.733106 L135.957266,204.733106 C135.282451,204.733106 134.701699,204.251199 134.576143,203.587631 L132.059131,190.270429 C131.563623,187.650218 129.1096,185.909717 126.468291,186.310466 C120.103535,187.27428 113.545195,187.762494 106.976357,187.762494 C102.089307,187.762494 97.2648242,187.489582 92.6360254,186.950906 C90.0766016,186.656127 87.6922852,188.403355 87.2139941,190.933998 L84.8221191,203.587631 C84.6965625,204.25162 84.1158105,204.733106 83.4409961,204.733106 L68.6652051,204.733106 C67.9903906,204.733106 67.4096387,204.251199 67.2824023,203.577539 L62.9068164,180.818576 C62.6250488,179.35225 61.7054199,178.105431 60.3822461,177.397709 C40.4174805,166.724688 29.8648438,148.893288 29.8648438,125.832397 C29.8648438,114.180844 32.4104102,103.877874 37.4305762,95.208594 C42.1152246,87.1183592 48.9574316,80.4292712 57.7669727,75.3263554 C59.2627344,74.4596797 59.7737793,72.5429849 58.9087402,71.0446999 C58.0437012,69.5468353 56.1296973,69.0359129 54.6335156,69.9013271 C37.5515137,79.7968208 27.2487305,95.0630968 24.4121582,114.452916 L24.4121582,114.452495 C24.1110742,114.425162 23.8095703,114.39909 23.5093262,114.367972 C23.563916,112.275924 23.1859863,110.164952 22.3629395,108.116217 C20.5476172,103.597392 16.8187109,100.3359 12.862627,99.8073157 C9.74512695,99.3893266 6.77837891,100.714781 4.71950195,103.438859 C1.73427734,107.389151 2.2209668,110.515239 3.15445313,112.442026 C4.73041992,115.693847 8.78140625,117.994049 15.5039355,119.440191 C15.3191699,119.717308 15.1159277,119.995687 14.8933691,120.275328 C10.9213281,125.263864 6.24171875,126.366868 3.20316406,126.470735 C1.424375,126.530868 0,127.96103 0,129.743581 L0,129.75872 C0,131.516881 1.38532227,132.950828 3.13933594,133.031146 C3.36399414,133.041659 3.59873047,133.047125 3.843125,133.047125 C7.68792969,133.047125 13.8586816,131.627055 19.7871387,124.182728 C20.7231445,123.007816 21.4857227,121.768146 22.0719336,120.487266 C22.6623438,120.554127 23.2296582,120.611317 23.7730371,120.661779 C23.7730371,120.660517 23.7730371,120.659676 23.773457,120.658415 C23.6667969,122.356443 23.6075879,124.079282 23.6075879,125.832397 C23.6075879,138.88005 26.71375,150.513521 32.8391504,160.411117 C38.4870996,169.536233 46.5735352,177.007894 56.8817773,182.626778 L61.1355859,204.75245 C61.8196387,208.372219 64.9862695,210.999579 68.6652051,210.999579 L83.4409961,210.999579 C87.1199316,210.999579 90.2865625,208.372219 90.9706152,204.75245 L93.1332129,193.311153 C97.6246973,193.787593 102.274912,194.028968 106.975938,194.028968 C113.425938,194.028968 119.868379,193.579019 126.147051,192.690898 L128.426807,204.753291 C129.111279,208.37306 132.27791,211 135.956426,211 L150.732217,211 C154.411152,211 157.577783,208.37264 158.262256,204.751609 L162.686973,181.290811 C175.187207,174.671528 184.609414,165.976176 190.697441,155.439822 C191.13626,154.680377 191.811914,154.123198 192.599688,153.87047 L206.788008,149.319266 C211.699834,147.742766 215,143.21427 215,138.049118 L215,123.425806 C215,118.261074 211.699834,113.732578 206.788008,112.156919 Z M176.903848,74.9176175 C175.699512,85.2311004 172.469053,94.0534469 169.223057,95.8944494 C165.533623,97.9873388 157.015508,98.391451 150.620098,93.7065243 C144.217129,89.0161309 142.086025,80.5814967 144.456484,69.314292 C144.456484,69.3138715 144.456484,69.3138715 144.456484,69.3138715 C144.69458,68.1822731 145.497471,67.2033207 146.603965,66.6961829 C162.26873,59.5155161 171.29999,57.1669553 174.655166,57.1669553 C175.161592,57.1669553 175.538682,57.2203604 175.789795,57.3187602 C176.797607,58.3944305 178.119521,64.5090988 176.903848,74.9176175 Z M8.78518555,109.705753 C8.46142578,109.037139 9.22568359,107.861807 9.71027344,107.220105 C10.4783105,106.204148 11.1858789,105.996415 11.7204395,105.996415 C11.8333984,105.996415 11.9387988,106.005666 12.0353809,106.018702 C13.4740332,106.210876 15.4896582,107.796207 16.5575195,110.454265 C16.8090527,111.079987 17.135752,112.11655 17.2121777,113.409204 C12.8806836,112.51057 9.51542969,111.214971 8.78518555,109.705753 Z" id="Shape"></path>
            <path d="M99.8664802,38.9328122 L99.8664802,27.7932097 C103.763988,28.0676891 105.211936,29.8236053 106.547982,29.8236053 C108.218464,29.8236053 108.997965,27.738481 108.997965,26.6957099 C108.997965,24.0064802 103.652509,22.8542516 99.8664802,22.7443763 L99.8664802,21.2621039 C99.8664802,20.6036876 99.0310275,20 98.1959986,20 C97.2490675,20 96.5810444,20.6036876 96.5810444,21.2621039 L96.5810444,22.853416 C91.2915395,23.4023748 86.0020346,26.1463333 86.0020346,33.0609583 C86.0020346,40.0854586 91.5700237,42.0611254 96.5810444,43.8170416 L96.5810444,56.7133958 C90.9015768,56.2743123 89.3985249,52.432854 87.5610376,52.432854 C86.1690404,52.432854 85,54.2439167 85,55.5611672 C85,58.2499791 89.6770092,61.9268333 96.5810444,62.0367087 L96.5810444,63.7378961 C96.5810444,64.3963124 97.2494914,65 98.1959986,65 C99.0314513,65 99.8664802,64.3963124 99.8664802,63.7378961 L99.8664802,61.8721046 C105.879959,61.0486664 110,57.3170834 110,50.5670625 C110,43.1038965 104.710495,40.6887284 99.8664802,38.9328122 Z M96.915056,37.8904589 C93.9640556,36.7929591 91.5700237,35.6407305 91.5700237,32.512835 C91.5700237,29.6590012 93.7970498,28.287022 96.915056,27.9030851 L96.915056,37.8904589 Z M99.5320448,56.6035205 L99.5320448,45.0244167 C102.260088,46.1766453 104.431587,47.7132287 104.431587,51.1703323 C104.431587,54.2990633 102.538572,56.0549794 99.5320448,56.6035205 Z" id="Shape"></path>
        </g>
    </g>
</svg>