<?xml version="1.0" encoding="UTF-8"?>
<svg width="512px" height="512px" viewBox="0 0 512 512" version="1.1" xmlns="http://www.w3.org/2000/svg" xmlns:xlink="http://www.w3.org/1999/xlink">
    <!-- Generator: Sketch 49 (51002) - http://www.bohemiancoding.com/sketch -->
    <title>search</title>
    <desc>Created with Sketch.</desc>
    <defs></defs>
    <g id="Page-1" stroke="none" stroke-width="1" fill="none" fill-rule="evenodd">
        <g id="search" fill="#0A80F0" fill-rule="nonzero">
            <path d="M145.067,136.542 L247.467,136.542 C252.186,136.542 256,132.719 256,128.009 C256,123.299 252.186,119.476 247.467,119.476 L145.067,119.476 C140.348,119.476 136.534,123.299 136.534,128.009 C136.534,132.719 140.348,136.542 145.067,136.542 Z" id="Shape"></path>
            <path d="M196.267,273.075 L128,273.075 C123.281,273.075 119.467,276.898 119.467,281.608 C119.467,286.318 123.281,290.141 128,290.141 L196.267,290.141 C200.986,290.141 204.8,286.318 204.8,281.608 C204.8,276.898 200.986,273.075 196.267,273.075 Z" id="Shape"></path>
            <path d="M170.667,230.409 C170.667,225.699 166.853,221.876 162.134,221.876 L110.934,221.876 C106.215,221.876 102.401,225.699 102.401,230.409 C102.401,235.119 106.215,238.942 110.934,238.942 L162.134,238.942 C166.852,238.942 170.667,235.119 170.667,230.409 Z" id="Shape"></path>
            <path d="M110.933,187.742 L230.4,187.742 C235.119,187.742 238.933,183.919 238.933,179.209 C238.933,174.499 235.119,170.676 230.4,170.676 L110.933,170.676 C106.214,170.676 102.4,174.499 102.4,179.209 C102.4,183.919 106.214,187.742 110.933,187.742 Z" id="Shape"></path>
            <path d="M264.533,273.075 L230.4,273.075 C225.681,273.075 221.867,276.898 221.867,281.608 C221.867,286.318 225.681,290.141 230.4,290.141 L264.533,290.141 C269.252,290.141 273.066,286.318 273.066,281.608 C273.067,276.898 269.252,273.075 264.533,273.075 Z" id="Shape"></path>
            <path d="M386.313,338.057 C382.985,341.385 382.985,346.795 386.313,350.123 L404.421,368.231 C406.085,369.904 408.27,370.731 410.454,370.731 C412.63,370.731 414.815,369.903 416.487,368.231 C419.815,364.903 419.815,359.501 416.487,356.165 L398.388,338.057 C395.051,334.729 389.649,334.729 386.313,338.057 Z" id="Shape"></path>
            <path d="M499.499,439.177 L439.697,379.384 C438.101,377.78 435.934,376.884 433.664,376.884 L433.656,376.884 C431.395,376.884 429.219,377.789 427.614,379.393 L403.55,403.594 C400.222,406.939 400.239,412.332 403.584,415.66 C406.938,418.988 412.331,418.979 415.65,415.626 L433.681,397.501 L487.432,451.244 C492.262,456.082 494.933,462.508 494.933,469.343 C494.933,476.178 492.262,482.612 487.432,487.442 C477.457,497.417 461.226,497.434 451.234,487.451 L350.114,386.331 C346.786,383.003 341.384,383.003 338.048,386.331 C334.72,389.668 334.72,395.069 338.048,398.406 L439.168,499.517 C447.479,507.837 458.402,511.993 469.325,511.993 C480.248,511.993 491.187,507.829 499.499,499.517 C507.554,491.453 512,480.744 512,469.343 C512,457.95 507.554,447.232 499.499,439.177 Z" id="Shape"></path>
            <path d="M409.6,204.809 C409.6,91.887 317.722,0.009 204.8,0.009 C91.878,0.009 0,91.887 0,204.809 C0,317.731 91.878,409.609 204.8,409.609 C317.722,409.609 409.6,317.73 409.6,204.809 Z M204.8,392.542 C101.282,392.542 17.067,308.327 17.067,204.809 C17.067,101.291 101.282,17.075 204.8,17.075 C308.318,17.075 392.533,101.29 392.533,204.808 C392.533,308.326 308.318,392.542 204.8,392.542 Z" id="Shape"></path>
            <path d="M204.8,34.142 C110.694,34.142 34.133,110.703 34.133,204.809 C34.133,298.915 110.694,375.475 204.8,375.475 C298.906,375.475 375.467,298.914 375.467,204.808 C375.467,110.702 298.906,34.142 204.8,34.142 Z M204.8,358.409 C120.107,358.409 51.2,289.502 51.2,204.809 C51.2,120.116 120.107,51.209 204.8,51.209 C289.493,51.209 358.4,120.116 358.4,204.809 C358.4,289.502 289.493,358.409 204.8,358.409 Z" id="Shape"></path>
            <path d="M298.667,221.875 L196.267,221.875 C191.548,221.875 187.734,225.698 187.734,230.408 C187.734,235.118 191.548,238.941 196.267,238.941 L298.667,238.941 C303.386,238.941 307.2,235.118 307.2,230.408 C307.2,225.698 303.386,221.875 298.667,221.875 Z" id="Shape"></path>
            <path d="M298.667,170.675 L264.534,170.675 C259.815,170.675 256.001,174.498 256.001,179.208 C256.001,183.918 259.815,187.741 264.534,187.741 L298.667,187.741 C303.386,187.741 307.2,183.918 307.2,179.208 C307.2,174.498 303.386,170.675 298.667,170.675 Z" id="Shape"></path>
        </g>
    </g>
</svg>