<?xml version="1.0" encoding="UTF-8"?>
<svg width="397px" height="397px" viewBox="0 0 397 397" version="1.1" xmlns="http://www.w3.org/2000/svg" xmlns:xlink="http://www.w3.org/1999/xlink">
    <!-- Generator: Sketch 49 (51002) - http://www.bohemiancoding.com/sketch -->
    <title>rocket-ship</title>
    <desc>Created with Sketch.</desc>
    <defs></defs>
    <g id="Page-1" stroke="none" stroke-width="1" fill="none" fill-rule="evenodd">
        <g id="rocket-ship" fill="#0A80F0" fill-rule="nonzero">
            <path d="M394.583,8.054 C394.161,4.641 391.473,1.953 388.061,1.531 C357.313,-2.272 325.584,1.043 296.294,11.114 C267.001,21.186 239.939,38.087 218.036,59.99 L168.053,109.973 L95.904,119.278 C94.259,119.49 92.732,120.241 91.559,121.413 L21.996,190.976 C20.027,192.945 19.311,195.844 20.138,198.504 C20.963,201.164 23.196,203.147 25.934,203.654 L78.531,213.396 L88.866,223.731 L66.863,235.646 C64.781,236.773 63.353,238.818 63.012,241.161 C62.671,243.504 63.456,245.87 65.13,247.544 L148.568,330.982 C149.985,332.399 151.897,333.179 153.872,333.179 C154.23,333.179 154.592,333.153 154.952,333.101 C157.295,332.76 159.34,331.332 160.467,329.25 L172.383,307.247 L182.718,317.582 L192.46,370.179 C192.968,372.918 194.95,375.15 197.61,375.976 C198.341,376.203 199.09,376.313 199.834,376.313 C201.794,376.313 203.71,375.544 205.139,374.116 L274.702,304.553 C275.874,303.381 276.625,301.853 276.837,300.209 L286.143,228.059 L336.126,178.075 C358.029,156.172 374.93,129.111 385.002,99.818 C395.072,70.528 398.385,38.795 394.583,8.054 Z M79.674,198.355 L42.685,191.504 L100.358,133.829 L150.69,127.338 L79.674,198.355 Z M152.065,313.268 L82.846,244.05 L99.931,234.798 L161.316,296.184 L152.065,313.268 Z M262.285,295.756 L204.611,353.43 L197.759,316.442 L268.776,245.425 L262.285,295.756 Z M325.517,167.471 L189.667,303.321 L92.793,206.447 L228.643,70.596 C248.381,50.857 272.645,35.52 298.93,26.106 C302.325,43.598 310.878,59.825 323.584,72.53 C336.289,85.236 352.515,93.789 370.008,97.185 C360.593,123.468 345.255,147.732 325.517,167.471 Z M374.523,82.774 C359.32,80.181 345.178,72.911 334.19,61.924 C323.202,50.937 315.933,36.794 313.34,21.591 C335.081,15.732 357.919,13.734 380.33,15.784 C382.381,38.195 380.382,61.033 374.523,82.774 Z" id="Shape"></path>
            <path d="M221.325,110.443 C203.585,128.184 203.585,157.049 221.325,174.79 C230.196,183.661 241.846,188.095 253.499,188.095 C265.148,188.095 276.803,183.659 285.672,174.79 L285.673,174.79 C303.413,157.05 303.413,128.184 285.672,110.443 C267.931,92.703 239.065,92.704 221.325,110.443 Z M275.066,164.183 C263.172,176.076 243.822,176.074 231.932,164.183 C220.039,152.291 220.039,132.941 231.932,121.049 C237.877,115.103 245.688,112.131 253.498,112.131 C261.309,112.131 269.119,115.104 275.064,121.049 C286.957,132.941 286.957,152.291 275.066,164.183 Z" id="Shape"></path>
            <path d="M98.365,299.165 C95.435,296.236 90.687,296.236 87.758,299.165 L23.41,363.512 C20.481,366.441 20.481,371.19 23.41,374.118 C24.875,375.582 26.795,376.315 28.714,376.315 C30.633,376.315 32.553,375.583 34.018,374.118 L98.365,309.771 C101.293,306.843 101.293,302.094 98.365,299.165 Z" id="Shape"></path>
            <path d="M108.263,319.671 L79.272,348.662 C76.343,351.591 76.343,356.34 79.272,359.268 C80.737,360.732 82.657,361.465 84.576,361.465 C86.495,361.465 88.415,360.733 89.88,359.268 L118.871,330.277 C121.8,327.348 121.8,322.599 118.871,319.671 C115.941,316.742 111.193,316.742 108.263,319.671 Z" id="Shape"></path>
            <path d="M69.123,361.919 C65.985,361.919 63.121,363.943 62.061,366.892 C60.983,369.89 61.986,373.333 64.477,375.308 C67.024,377.328 70.743,377.438 73.405,375.573 C76.245,373.583 77.397,369.763 76.044,366.549 C74.931,363.774 72.099,361.919 69.123,361.919 Z" id="Shape"></path>
            <path d="M76.044,366.549 C76.234,367 75.864,366.099 76.044,366.549 Z" id="Shape"></path>
            <path d="M47.91,380.025 L43.918,384.017 C40.988,386.946 40.988,391.695 43.917,394.624 C45.382,396.088 47.301,396.821 49.221,396.821 C51.14,396.821 53.06,396.089 54.524,394.625 L58.516,390.633 C61.446,387.704 61.446,382.955 58.517,380.027 C55.588,377.099 50.838,377.096 47.91,380.025 Z" id="Shape"></path>
            <path d="M42.502,314.014 C39.572,311.085 34.824,311.085 31.895,314.014 L2.904,343.005 C-0.025,345.934 -0.025,350.683 2.904,353.611 C4.369,355.075 6.289,355.808 8.208,355.808 C10.127,355.808 12.047,355.076 13.512,353.611 L42.503,324.62 C45.431,321.692 45.431,316.943 42.502,314.014 Z" id="Shape"></path>
            <path d="M54.472,311.136 C57.515,310.371 59.799,307.719 60.116,304.599 C60.427,301.544 58.747,298.55 56.02,297.172 C53.125,295.708 49.497,296.319 47.251,298.666 C44.846,301.179 44.499,305.092 46.399,308.001 C46.339,307.911 46.293,307.845 46.414,308.03 C46.54,308.215 46.497,308.148 46.437,308.059 C48.204,310.626 51.429,311.901 54.472,311.136 Z" id="Shape"></path>
            <path d="M73.867,293.257 L77.858,289.265 C80.787,286.336 80.787,281.587 77.857,278.659 C74.925,275.729 70.176,275.73 67.251,278.66 L63.26,282.652 C60.331,285.581 60.331,290.33 63.261,293.258 C64.726,294.722 66.645,295.454 68.564,295.454 C70.483,295.454 72.403,294.722 73.867,293.257 Z" id="Shape"></path>
        </g>
    </g>
</svg>