<?xml version="1.0" encoding="UTF-8"?>
<svg width="512px" height="388px" viewBox="0 0 512 388" version="1.1" xmlns="http://www.w3.org/2000/svg" xmlns:xlink="http://www.w3.org/1999/xlink">
    <!-- Generator: Sketch 49 (51002) - http://www.bohemiancoding.com/sketch -->
    <title>seo</title>
    <desc>Created with Sketch.</desc>
    <defs></defs>
    <g id="Page-1" stroke="none" stroke-width="1" fill="none" fill-rule="evenodd">
        <g id="seo" fill="#0A80F0" fill-rule="nonzero">
            <path d="M510.939,352.98 L457.931,262.914 C468.896,253.138 478.238,241.463 485.534,228.215 C502.415,197.563 506.349,162.172 496.611,128.562 C486.872,94.952 464.629,67.144 433.977,50.264 C370.702,15.417 290.872,38.545 256.026,101.819 C247.377,117.525 242.303,134.249 240.525,151.053 L240.525,15.791 L448.776,15.791 L448.776,40.268 C448.776,44.506 452.21,47.94 456.448,47.94 C460.686,47.94 464.12,44.506 464.12,40.268 L464.12,8.118 C464.12,3.88 460.686,0.446 456.448,0.446 L232.853,0.446 C232.585,0.446 232.321,0.46 232.06,0.487 C231.799,0.46 231.535,0.446 231.267,0.446 L44.467,0.446 C40.229,0.446 36.795,3.88 36.795,8.118 C36.795,12.356 40.229,15.79 44.467,15.79 L223.595,15.79 L223.595,334.744 L15.344,334.744 L15.344,8.119 C15.344,3.881 11.91,0.447 7.672,0.447 C3.434,0.447 0,3.881 0,8.119 L0,342.417 C0,342.504 0.01,342.589 0.013,342.675 C0.01,342.761 0,342.846 0,342.933 L0,379.881 C0,384.119 3.434,387.553 7.672,387.553 L231.267,387.553 C231.535,387.553 231.799,387.539 232.06,387.512 C232.321,387.539 232.585,387.553 232.853,387.553 L445.808,387.553 C450.046,387.553 453.48,384.119 453.48,379.881 L453.48,355.71 L467.068,378.797 C468.498,381.228 471.059,382.579 473.688,382.579 C475.011,382.579 476.351,382.237 477.572,381.518 L508.218,363.481 C511.87,361.334 513.087,356.631 510.939,352.98 Z M223.595,372.21 L15.344,372.21 L15.344,350.606 L223.595,350.606 L223.595,372.21 Z M269.467,109.223 C290.514,71.004 330.147,49.377 370.975,49.377 C389.824,49.377 408.931,53.989 426.576,63.706 C482.44,94.472 502.859,164.95 472.095,220.814 C441.328,276.68 370.851,297.098 314.986,266.333 C259.122,235.564 238.702,165.085 269.467,109.223 Z M438.136,372.21 L240.525,372.21 L240.525,350.606 L438.136,350.606 L438.136,372.21 Z M240.525,334.744 L240.525,178.515 C244.857,219.748 268.594,258.299 307.582,279.771 C327.213,290.582 348.787,296.082 370.593,296.082 C382.836,296.082 395.151,294.349 407.236,290.848 C409.528,290.184 411.79,289.457 414.027,288.677 L441.141,334.744 L240.525,334.744 Z M476.401,364.405 L428.336,282.739 C434.433,279.774 440.256,276.348 445.771,272.508 L493.823,354.152 L476.401,364.405 Z" id="Shape"></path>
            <path d="M466.658,137.238 C459.239,111.627 442.29,90.441 418.935,77.579 C370.724,51.027 309.894,68.651 283.342,116.863 C270.479,140.218 267.482,167.185 274.903,192.795 C282.322,218.405 299.271,239.592 322.626,252.454 C337.585,260.693 354.021,264.883 370.639,264.883 C379.965,264.883 389.352,263.561 398.559,260.894 C424.169,253.474 445.356,236.525 458.218,213.17 C471.081,189.816 474.078,162.849 466.658,137.238 Z M370.923,80.554 C384.69,80.554 398.644,83.923 411.532,91.019 C419.175,95.228 425.996,100.501 431.864,106.626 L309.735,106.626 C325.838,89.8 348.121,80.554 370.923,80.554 Z M394.289,246.157 C372.615,252.434 349.793,249.898 330.03,239.015 C327.801,237.787 325.665,236.459 323.592,235.065 L418.036,235.065 C410.837,239.909 402.862,243.674 394.289,246.157 Z M444.776,205.768 C442.015,210.784 438.796,215.446 435.18,219.72 L306.426,219.72 C296.333,207.82 289.826,193.411 287.403,178.25 C288.036,178.419 288.698,178.518 289.385,178.518 L451.633,178.518 C452.566,178.518 453.455,178.343 454.281,178.038 C452.78,187.638 449.603,197.004 444.776,205.768 Z M451.634,163.174 L289.386,163.174 C288.302,163.174 287.272,163.401 286.337,163.807 C286.507,150.387 289.868,136.822 296.782,124.266 C297.209,123.491 297.65,122.728 298.099,121.972 L441.84,121.972 C442.374,121.972 442.895,121.917 443.398,121.813 C447.016,127.917 449.894,134.514 451.92,141.509 C454.077,148.955 455.169,156.537 455.264,164.086 C454.183,163.505 452.947,163.174 451.634,163.174 Z" id="Shape"></path>
            <path d="M179.045,53.733 L57.523,53.733 C53.285,53.733 49.851,57.167 49.851,61.405 C49.851,65.643 53.286,69.077 57.523,69.077 L179.045,69.077 C183.283,69.077 186.717,65.643 186.717,61.405 C186.717,57.167 183.283,53.733 179.045,53.733 Z" id="Shape"></path>
            <path d="M179.045,100.655 L57.523,100.655 C53.285,100.655 49.851,104.089 49.851,108.327 C49.851,112.565 53.286,116 57.523,116 L179.045,116 C183.283,116 186.717,112.566 186.717,108.328 C186.717,104.09 183.283,100.655 179.045,100.655 Z" id="Shape"></path>
            <path d="M179.045,147.576 L57.523,147.576 C53.285,147.576 49.851,151.01 49.851,155.248 C49.851,159.486 53.286,162.92 57.523,162.92 L179.045,162.92 C183.283,162.92 186.717,159.486 186.717,155.248 C186.717,151.011 183.283,147.576 179.045,147.576 Z" id="Shape"></path>
            <path d="M179.045,194.497 L57.523,194.497 C53.285,194.497 49.851,197.931 49.851,202.169 C49.851,206.407 53.286,209.841 57.523,209.841 L179.045,209.841 C183.283,209.841 186.717,206.407 186.717,202.169 C186.717,197.931 183.283,194.497 179.045,194.497 Z" id="Shape"></path>
            <path d="M179.045,241.418 L57.523,241.418 C53.285,241.418 49.851,244.852 49.851,249.09 C49.851,253.328 53.286,256.762 57.523,256.762 L179.045,256.762 C183.283,256.762 186.717,253.328 186.717,249.09 C186.717,244.852 183.283,241.418 179.045,241.418 Z" id="Shape"></path>
        </g>
    </g>
</svg>