<?xml version="1.0" encoding="UTF-8"?>
<svg width="129px" height="129px" viewBox="0 0 129 129" version="1.1" xmlns="http://www.w3.org/2000/svg" xmlns:xlink="http://www.w3.org/1999/xlink">
    <!-- Generator: Sketch 49 (51002) - http://www.bohemiancoding.com/sketch -->
    <title>success</title>
    <desc>Created with Sketch.</desc>
    <defs></defs>
    <g id="Page-1" stroke="none" stroke-width="1" fill="none" fill-rule="evenodd">
        <g id="success" fill="#0A80F0" fill-rule="nonzero">
            <path d="M64.5,0 C28.9356923,0 0,28.9332115 0,64.5 C0,100.066788 28.9356923,129 64.5,129 C100.064308,129 129,100.066788 129,64.5 C129,28.9332115 100.064308,0 64.5,0 Z M64.5,124.038462 C31.6719808,124.038462 4.96153846,97.3280192 4.96153846,64.5 C4.96153846,31.6719808 31.6719808,4.96153846 64.5,4.96153846 C97.3280192,4.96153846 124.038462,31.6719808 124.038462,64.5 C124.038462,97.3280192 97.3280192,124.038462 64.5,124.038462 Z" id="Shape"></path>
            <path d="M94.690767,37.8411669 L56.8183488,81.0651409 L34.0022437,62.5480804 C32.9426342,61.6856009 31.3877187,61.8630967 30.540031,62.9380712 C29.6898791,64.0180456 29.8623737,65.5905082 30.9244475,66.4529878 L55.566531,86.452513 C56.0199453,86.8200043 56.5645354,87 57.1066612,87 C57.7867827,87 58.46444,86.7150068 58.9498891,86.1600199 L98.3772226,41.1610881 C99.2815871,40.1311126 99.1904114,38.5486502 98.1726934,37.6336719 C97.1525111,36.7136937 95.5975956,36.8061915 94.690767,37.8411669 Z" id="Shape"></path>
        </g>
    </g>
</svg>