<?xml version="1.0" encoding="UTF-8"?>
<svg width="275px" height="275px" viewBox="0 0 275 275" version="1.1" xmlns="http://www.w3.org/2000/svg" xmlns:xlink="http://www.w3.org/1999/xlink">
    <!-- Generator: Sketch 49.1 (51147) - http://www.bohemiancoding.com/sketch -->
    <title>tag</title>
    <desc>Created with Sketch.</desc>
    <defs></defs>
    <g id="Page-1" stroke="none" stroke-width="1" fill="none" fill-rule="evenodd">
        <g id="tag" fill="#0A80F0" fill-rule="nonzero">
            <path d="M274.999832,18.7317108 C275.020779,13.7101599 273.08289,8.99584257 269.543341,5.45621048 C266.003793,1.91657839 261.280456,-0.0181340266 256.268691,0.000128111648 C251.261761,0.0210758585 246.548092,1.9885527 242.996189,5.54000147 C241.492284,7.04394226 238.756788,10.2924544 237.260402,12.095572 C235.688821,13.988926 235.948782,16.7980726 237.842091,18.3691536 C239.734863,19.9407717 242.543944,19.6808048 244.115525,17.7874508 C246.459469,14.9643391 248.396821,12.7411923 249.296479,11.8409763 C251.175286,9.96266165 253.664249,8.92171977 256.305752,8.91044022 C256.320254,8.91044022 256.333681,8.91044022 256.348183,8.91044022 C258.959607,8.91044022 261.407213,9.92022904 263.243052,11.7566482 C265.089096,13.6027355 266.100472,16.0665128 266.089193,18.6941122 C266.077914,21.3351397 265.036996,23.8241617 263.158726,25.7035506 C261.477037,27.3852787 255.69667,31.9706867 247.414986,37.7560247 C242.516014,29.3801487 233.430277,23.7376851 223.046348,23.7376851 L157.806935,23.7376851 C149.000495,23.7376851 140.721496,27.1672073 134.493717,33.3940593 L4.08901117,163.803451 C1.45234286,166.440182 0,169.945975 0,173.674674 C0,177.403373 1.45234286,180.909704 4.08901117,183.545897 L91.4589285,270.917875 C94.1809971,273.639471 97.7549207,275 101.329919,275 C104.904916,275 108.479914,273.638934 111.200909,270.917875 L241.606688,140.509557 C247.833393,134.282168 251.262835,126.002974 251.262835,117.195789 L251.262835,51.9553743 C251.262835,50.029793 251.067864,48.149867 250.698333,46.33171 C260.125134,39.8448911 267.045247,34.4183504 269.459015,32.0045254 C273.011454,28.4530766 274.978885,23.7392965 274.999832,18.7317108 Z M242.352733,117.195789 C242.352733,123.62245 239.849805,129.664532 235.306399,134.208045 L104.900619,264.617437 C102.932652,266.585988 99.7282594,266.585988 97.7597547,264.617437 L10.3898374,177.245459 C9.43646884,176.292068 8.91063909,175.023924 8.91063909,173.674674 C8.91063909,172.325425 9.43593173,171.057817 10.3898374,170.104426 L140.79508,39.6961084 C145.33956,35.1520587 151.380962,32.6496086 157.806935,32.6496086 L223.045811,32.6496086 C230.371978,32.6496086 236.758205,36.7516071 240.028125,42.779187 C234.76553,46.2640327 228.872907,49.9696354 222.621495,53.6134691 C222.426524,53.3996946 222.227257,53.1880687 222.02047,52.9812768 C214.72438,45.6850155 202.853196,45.6850155 195.557107,52.9812768 C188.261018,60.2775382 188.261018,72.1490023 195.557107,79.4452636 C199.205152,83.0933943 203.997239,84.9169225 208.788788,84.9169225 C213.580338,84.9169225 218.372425,83.0933943 222.02047,79.4452636 C226.890438,74.5751811 228.50445,67.668333 226.873787,61.4425552 C232.310942,58.2772969 237.532179,55.0422128 242.350584,51.9124046 C242.351121,51.927444 242.352196,51.9414092 242.352196,51.9559115 L242.352196,117.195789 L242.352733,117.195789 Z M204.809885,68.2151229 C205.592452,69.7711645 207.162959,70.669232 208.793622,70.669232 C209.46662,70.669232 210.15036,70.5161523 210.792742,70.192805 C213.404166,68.8790053 216.00646,67.5125677 218.582972,66.1128285 C218.608753,68.6560998 217.65807,71.2074279 215.721255,73.1442888 C211.899187,76.9659098 205.681613,76.9659098 201.859545,73.1442888 C198.038014,69.3221307 198.038014,63.1044098 201.859545,59.2822516 C203.770579,57.3711726 206.280489,56.4161702 208.7904,56.4161702 C210.777703,56.4161702 212.759098,57.0252662 214.449381,58.2225105 C211.927654,59.5932451 209.368329,60.9355123 206.788594,62.2337355 C204.589133,63.3385948 203.70344,66.0172208 204.809885,68.2151229 Z" id="Shape"></path>
            <path d="M132.5,91 C130.014828,91 128,92.9942691 128,95.4552821 L128,189.544718 C128,192.005194 130.014828,194 132.5,194 C134.985172,194 137,192.005194 137,189.544718 L137,95.4552821 C137,92.9942691 134.985172,91 132.5,91 Z" id="Shape"></path>
            <path d="M111.579225,129.41318 C104.364804,122.19543 92.6251041,122.195961 85.4112141,129.412648 C78.196262,136.629336 78.196262,148.371328 85.4112141,155.588016 C89.0192214,159.196891 93.756955,161.000531 98.4957509,161 C103.233485,161 107.972812,159.195297 111.579757,155.588016 C115.075163,152.091769 117,147.444273 117,142.500332 C117,137.556391 115.074632,132.908364 111.579225,129.41318 Z M105.348999,149.355229 C101.569435,153.135702 95.4210043,153.135171 91.6419712,149.355229 C87.8629382,145.574756 87.8629382,139.424846 91.6419712,135.644373 C93.5317533,133.754136 96.0137521,132.809549 98.4957509,132.809549 C100.97775,132.809549 103.459748,133.754136 105.349531,135.644373 C107.180357,137.475639 108.188453,139.90989 108.188453,142.499801 C108.187922,145.089712 107.179825,147.523962 105.348999,149.355229 Z" id="Shape"></path>
            <path d="M179.587331,129.412705 C172.370527,122.195499 160.627813,122.196031 153.412603,129.412705 C146.195799,136.62938 146.195799,148.371351 153.412603,155.588025 C157.021005,159.196363 161.760486,161 166.500498,161 C171.239979,161 175.979991,159.196363 179.587862,155.588025 C186.804135,148.371351 186.804135,136.62938 179.587331,129.412705 Z M173.354974,149.35525 C169.57444,153.135716 163.424431,153.135185 159.644428,149.35525 C155.864425,145.574783 155.864425,139.424885 159.644428,135.644418 C161.534695,133.754185 164.017331,132.8096 166.499967,132.8096 C168.982603,132.8096 171.465238,133.754185 173.355506,135.644418 C177.135509,139.424885 177.135509,145.574783 173.354974,149.35525 Z" id="Shape"></path>
        </g>
    </g>
</svg>