<?xml version="1.0" encoding="UTF-8"?>
<svg width="118px" height="118px" viewBox="0 0 118 118" version="1.1" xmlns="http://www.w3.org/2000/svg" xmlns:xlink="http://www.w3.org/1999/xlink">
    <!-- Generator: Sketch 49 (51002) - http://www.bohemiancoding.com/sketch -->
    <title>target</title>
    <desc>Created with Sketch.</desc>
    <defs></defs>
    <g id="Page-1" stroke="none" stroke-width="1" fill="none" fill-rule="evenodd">
        <g id="target" fill="#0A80F0" fill-rule="nonzero">
            <path d="M116.033333,57.0333333 L112.050833,57.0333333 C111.034067,29.3171 88.6829,6.96593333 60.9666667,5.94916667 L60.9666667,1.96666667 C60.9666667,0.8791 60.0875667,0 59,0 C57.9124333,0 57.0333333,0.8791 57.0333333,1.96666667 L57.0333333,5.94916667 C29.3171,6.96593333 6.96593333,29.3171 5.94916667,57.0333333 L1.96666667,57.0333333 C0.8791,57.0333333 0,57.9124333 0,59 C0,60.0875667 0.8791,60.9666667 1.96666667,60.9666667 L5.94916667,60.9666667 C6.96593333,88.6829 29.3171,111.034067 57.0333333,112.050833 L57.0333333,116.033333 C57.0333333,117.1209 57.9124333,118 59,118 C60.0875667,118 60.9666667,117.1209 60.9666667,116.033333 L60.9666667,112.050833 C88.6829,111.034067 111.034067,88.6829 112.050833,60.9666667 L116.033333,60.9666667 C117.1209,60.9666667 118,60.0875667 118,59 C118,57.9124333 117.1209,57.0333333 116.033333,57.0333333 Z M60.9666667,108.1175 L60.9666667,104.233333 C60.9666667,103.145767 60.0875667,102.266667 59,102.266667 C57.9124333,102.266667 57.0333333,103.145767 57.0333333,104.233333 L57.0333333,108.1175 C31.4863333,107.104667 10.8953333,86.5136667 9.8825,60.9666667 L13.7666667,60.9666667 C14.8542333,60.9666667 15.7333333,60.0875667 15.7333333,59 C15.7333333,57.9124333 14.8542333,57.0333333 13.7666667,57.0333333 L9.8825,57.0333333 C10.8953333,31.4863333 31.4863333,10.8953333 57.0333333,9.8825 L57.0333333,13.7666667 C57.0333333,14.8542333 57.9124333,15.7333333 59,15.7333333 C60.0875667,15.7333333 60.9666667,14.8542333 60.9666667,13.7666667 L60.9666667,9.8825 C86.5136667,10.8953333 107.104667,31.4863333 108.1175,57.0333333 L104.233333,57.0333333 C103.145767,57.0333333 102.266667,57.9124333 102.266667,59 C102.266667,60.0875667 103.145767,60.9666667 104.233333,60.9666667 L108.1175,60.9666667 C107.104667,86.5136667 86.5136667,107.104667 60.9666667,108.1175 Z" id="Shape"></path>
            <path d="M82.0384615,56.5384615 L72.0738462,56.5384615 C71.2088077,50.5381154 66.4618846,45.7911923 60.4615385,44.9261538 L60.4615385,34.9615385 C60.4615385,33.8768077 59.5847308,33 58.5,33 C57.4152692,33 56.5384615,33.8768077 56.5384615,34.9615385 L56.5384615,44.9261538 C50.5381154,45.7911923 45.7911923,50.5400769 44.9261538,56.5384615 L34.9615385,56.5384615 C33.8768077,56.5384615 33,57.4152692 33,58.5 C33,59.5847308 33.8768077,60.4615385 34.9615385,60.4615385 L44.9261538,60.4615385 C45.7911923,66.4618846 50.5381154,71.2088077 56.5384615,72.0738462 L56.5384615,82.0384615 C56.5384615,83.1231923 57.4152692,84 58.5,84 C59.5847308,84 60.4615385,83.1231923 60.4615385,82.0384615 L60.4615385,72.0738462 C66.4618846,71.2088077 71.2088077,66.4599231 72.0738462,60.4615385 L82.0384615,60.4615385 C83.1231923,60.4615385 84,59.5847308 84,58.5 C84,57.4152692 83.1231923,56.5384615 82.0384615,56.5384615 Z M58.5,68.3076923 C53.0920385,68.3076923 48.6923077,63.9079615 48.6923077,58.5 C48.6923077,53.0920385 53.0920385,48.6923077 58.5,48.6923077 C63.9079615,48.6923077 68.3076923,53.0920385 68.3076923,58.5 C68.3076923,63.9079615 63.9079615,68.3076923 58.5,68.3076923 Z" id="Shape"></path>
        </g>
    </g>
</svg>